<svg xmlns="http://www.w3.org/2000/svg" width="412.77" height="385" viewBox="0 0 412.77 385">
  <defs>
    <style>
      .cls-1 {
        fill: #05dd24;
      }

      .cls-1, .cls-4 {
        stroke: #000;
        stroke-width: 2px;
      }

      .cls-1, .cls-2, .cls-4, .cls-5 {
        stroke-miterlimit: 10;
      }

      .cls-2 {
        fill: #fff;
      }

      .cls-2, .cls-5 {
        stroke: #020000;
      }

      .cls-3 {
        fill: #070707;
      }

      .cls-4 {
        fill: #e5895c;
      }

      .cls-5 {
        fill: none;
      }
    </style>
  </defs>
  <title>accordion</title>
  <g id="left_half" data-name="left half">
    <path class="cls-1" d="M444,741,394,561s12-15,16-13,17-13,20-44c0,0-16-21,6-41s63-31,63-31l77,333s-17-2-54,16c0,0,0,13-22-19,0,0-2.06-16.46-43.14-9.38a8.22,8.22,0,0,1-7.61-2.74Z" transform="translate(-392.9 -399.62)"/>
    <polygon class="cls-2" points="158.56 339.02 100.67 350.63 37.43 131.9 95 110.39 158.56 339.02"/>
    <g>
      <polygon class="cls-3" points="71.04 135.28 41.5 145.98 43.55 153.04 73.53 142.18 71.04 135.28"/>
      <polygon class="cls-3" points="73.92 145.34 44.39 156.03 46.43 163.09 76.42 152.23 73.92 145.34"/>
      <polygon class="cls-3" points="76.9 155.54 47.37 166.24 49.41 173.3 79.4 162.44 76.9 155.54"/>
      <polygon class="cls-3" points="81.34 170.95 51.81 181.64 53.85 188.7 83.83 177.85 81.34 170.95"/>
      <polygon class="cls-3" points="84.97 183.6 55.44 194.29 57.48 201.35 87.47 190.49 84.97 183.6"/>
      <polyline class="cls-3" points="43.55 153.04 73.53 142.18 71.04 135.28"/>
      <line class="cls-3" x1="71.04" y1="135.29" x2="41.5" y2="145.98"/>
      <polyline class="cls-3" points="46.43 163.09 76.42 152.23 73.92 145.34 44.39 156.03"/>
      <polyline class="cls-3" points="47.37 166.24 49.41 173.3 79.4 162.44 76.9 155.54 47.37 166.24"/>
      <polygon class="cls-3" points="81.34 170.95 51.81 181.64 53.85 188.7 83.83 177.85 81.34 170.95"/>
      <polygon class="cls-3" points="84.97 183.6 55.44 194.29 57.48 201.35 87.47 190.49 84.97 183.6"/>
      <polygon class="cls-3" points="90.14 201.35 60.61 212.04 62.65 219.1 92.64 208.24 90.14 201.35"/>
      <polygon class="cls-3" points="93.03 211.4 63.5 222.09 65.54 229.15 95.53 218.29 93.03 211.4"/>
      <polygon class="cls-3" points="96.01 221.61 66.48 232.3 68.52 239.36 98.5 228.5 96.01 221.61"/>
      <polygon class="cls-3" points="100.45 237.01 70.91 247.71 72.95 254.76 102.94 243.91 100.45 237.01"/>
      <polygon class="cls-3" points="104.08 249.66 74.55 260.35 76.59 267.41 106.58 256.55 104.08 249.66"/>
      <polyline class="cls-3" points="62.65 219.1 92.64 208.24 90.14 201.35"/>
      <line class="cls-3" x1="90.14" y1="201.35" x2="60.61" y2="212.04"/>
      <polyline class="cls-3" points="65.54 229.15 95.53 218.29 93.03 211.4 63.5 222.09"/>
      <polyline class="cls-3" points="66.48 232.3 68.52 239.36 98.5 228.5 96.01 221.61 66.48 232.3"/>
      <polygon class="cls-3" points="100.45 237.01 70.91 247.71 72.95 254.76 102.94 243.91 100.45 237.01"/>
      <polygon class="cls-3" points="104.08 249.66 74.55 260.35 76.59 267.41 106.58 256.55 104.08 249.66"/>
      <polygon class="cls-3" points="71.04 135.28 41.5 145.98 43.55 153.04 73.53 142.18 71.04 135.28"/>
      <polygon class="cls-3" points="73.92 145.34 44.39 156.03 46.43 163.09 76.42 152.23 73.92 145.34"/>
      <polygon class="cls-3" points="76.9 155.54 47.37 166.24 49.41 173.3 79.4 162.44 76.9 155.54"/>
      <polygon class="cls-3" points="81.34 170.95 51.81 181.64 53.85 188.7 83.83 177.85 81.34 170.95"/>
      <polygon class="cls-3" points="84.97 183.6 55.44 194.29 57.48 201.35 87.47 190.49 84.97 183.6"/>
      <polyline class="cls-3" points="43.55 153.04 73.53 142.18 71.04 135.28"/>
      <line class="cls-3" x1="71.04" y1="135.29" x2="41.5" y2="145.98"/>
      <polyline class="cls-3" points="46.43 163.09 76.42 152.23 73.92 145.34 44.39 156.03"/>
      <polyline class="cls-3" points="47.37 166.24 49.41 173.3 79.4 162.44 76.9 155.54 47.37 166.24"/>
      <polygon class="cls-3" points="81.34 170.95 51.81 181.64 53.85 188.7 83.83 177.85 81.34 170.95"/>
      <polygon class="cls-3" points="84.97 183.6 55.44 194.29 57.48 201.35 87.47 190.49 84.97 183.6"/>
      <polygon class="cls-3" points="90.14 201.35 60.61 212.04 62.65 219.1 92.64 208.24 90.14 201.35"/>
      <polygon class="cls-3" points="93.03 211.4 63.5 222.09 65.54 229.15 95.53 218.29 93.03 211.4"/>
      <polygon class="cls-3" points="96.01 221.61 66.48 232.3 68.52 239.36 98.5 228.5 96.01 221.61"/>
      <polygon class="cls-3" points="100.45 237.01 70.91 247.71 72.95 254.76 102.94 243.91 100.45 237.01"/>
      <polygon class="cls-3" points="104.08 249.66 74.55 260.35 76.59 267.41 106.58 256.55 104.08 249.66"/>
      <polyline class="cls-3" points="62.65 219.1 92.64 208.24 90.14 201.35"/>
      <line class="cls-3" x1="90.14" y1="201.35" x2="60.61" y2="212.04"/>
      <polyline class="cls-3" points="65.54 229.15 95.53 218.29 93.03 211.4 63.5 222.09"/>
      <polyline class="cls-3" points="66.48 232.3 68.52 239.36 98.5 228.5 96.01 221.61 66.48 232.3"/>
      <polygon class="cls-3" points="100.45 237.01 70.91 247.71 72.95 254.76 102.94 243.91 100.45 237.01"/>
      <polygon class="cls-3" points="104.08 249.66 74.55 260.35 76.59 267.41 106.58 256.55 104.08 249.66"/>
      <polygon class="cls-3" points="109.86 269.29 80.33 279.98 82.37 287.04 112.35 276.18 109.86 269.29"/>
      <polygon class="cls-3" points="112.74 279.34 83.21 290.03 85.25 297.09 115.24 286.23 112.74 279.34"/>
      <polygon class="cls-3" points="115.72 289.55 86.19 300.24 88.23 307.3 118.22 296.44 115.72 289.55"/>
      <polygon class="cls-3" points="120.16 304.95 90.63 315.64 92.67 322.7 122.66 311.85 120.16 304.95"/>
      <polygon class="cls-3" points="123.8 317.6 94.26 328.29 96.3 335.35 126.29 324.49 123.8 317.6"/>
      <polyline class="cls-3" points="82.37 287.04 112.35 276.18 109.86 269.29"/>
      <line class="cls-3" x1="109.86" y1="269.28" x2="80.33" y2="279.98"/>
      <polyline class="cls-3" points="85.25 297.09 115.24 286.23 112.74 279.34 83.21 290.03"/>
      <polyline class="cls-3" points="86.19 300.24 88.23 307.3 118.22 296.44 115.72 289.55 86.19 300.24"/>
      <polygon class="cls-3" points="120.16 304.95 90.63 315.64 92.67 322.7 122.66 311.85 120.16 304.95"/>
      <polygon class="cls-3" points="123.8 317.6 94.26 328.29 96.3 335.35 126.29 324.49 123.8 317.6"/>
      <polygon class="cls-3" points="109.86 269.29 80.33 279.98 82.37 287.04 112.35 276.18 109.86 269.29"/>
      <polygon class="cls-3" points="112.74 279.34 83.21 290.03 85.25 297.09 115.24 286.23 112.74 279.34"/>
      <polygon class="cls-3" points="115.72 289.55 86.19 300.24 88.23 307.3 118.22 296.44 115.72 289.55"/>
      <polygon class="cls-3" points="120.16 304.95 90.63 315.64 92.67 322.7 122.66 311.85 120.16 304.95"/>
      <polygon class="cls-3" points="123.8 317.6 94.26 328.29 96.3 335.35 126.29 324.49 123.8 317.6"/>
      <polyline class="cls-3" points="82.37 287.04 112.35 276.18 109.86 269.29"/>
      <line class="cls-3" x1="109.86" y1="269.28" x2="80.33" y2="279.98"/>
      <polyline class="cls-3" points="85.25 297.09 115.24 286.23 112.74 279.34 83.21 290.03"/>
      <polyline class="cls-3" points="86.19 300.24 88.23 307.3 118.22 296.44 115.72 289.55 86.19 300.24"/>
      <polygon class="cls-3" points="120.16 304.95 90.63 315.64 92.67 322.7 122.66 311.85 120.16 304.95"/>
      <polygon class="cls-3" points="123.8 317.6 94.26 328.29 96.3 335.35 126.29 324.49 123.8 317.6"/>
    </g>
  </g>
  <g id="right_half" data-name="right half">
    <path class="cls-1" d="M650,764.67,729.33,432s92,26,72.67,64L727.33,764.67s-12.66,27.33-30.66,14C696.67,778.67,659.33,764.67,650,764.67Z" transform="translate(-392.9 -399.62)"/>
    <g>
      <circle cx="287.21" cy="328.19" r="10.75"/>
      <circle cx="317.71" cy="306.69" r="10.75"/>
      <circle cx="301.71" cy="276.44" r="10.75"/>
      <circle cx="313.21" cy="241.69" r="10.75"/>
      <circle cx="343.71" cy="220.19" r="10.75"/>
      <circle cx="327.71" cy="189.94" r="10.75"/>
      <circle cx="339.21" cy="142.56" r="10.75"/>
      <circle cx="369.71" cy="121.06" r="10.75"/>
      <circle cx="353.71" cy="90.81" r="10.75"/>
    </g>
  </g>
  <g id="middle">
    <g>
      <path class="cls-4" d="M577.33,764.67,499.33,430s0-22.67,9.34,2.67c0,0,7.33,5.33,5.33-14.67,0,0,4.25-6,6.5,3s9.75,8.25,9.75,8.25-3.5-32,6.25-15,13.5,7.5,13.5,7.5-.75-25,7.25-13.5,13.5,20.5,14,8.25S577,395.75,582.5,412s10.25,2.25,10.25,2.25-.25-28.75,10,0c0,0,.5,5.75,3.25,5s10-30.5,10.75-8c0,0,5,16,9.25,2.25s5.75-20.5,10.75.5c0,0,1.75,12.25,9.25-.75s6.25-15.25,10.75,2c0,0,3,13,8.75,1.75s13.25-17.25,13,0,10.75-1.5,10.75-1.5,12.25-19,9,10.75c0,0,2.5,9,9.5-5.75s7.75,11.75,7.75,11.75,7.25-1.75,9.5-11c0,0,7.5-1,4,10s-78.25,333.42-78.25,333.42-1-10.84-5.5,0c0,0-2,4.58-5.25-8.67,0,0-4.75,15-6,1.75,0,0-4-2.25-4.25.25s-2,10.75-5.75-.5l-3.5-.75s-1.49,14-5.87-.75c0,0-3.13-.25-2.88,3.5s-1.75,5.75-5.25-2.5c0,0-1.25-1.25-4,5s-6-6-6-6a4.17,4.17,0,0,0-2.5,3.75c0,2.75-3.25,8-5-2.25,0,0-3,0-2.75,4.25s-1.5,7.25-4.75-1.5S577.33,764.67,577.33,764.67Z" transform="translate(-392.9 -399.62)"/>
      <line class="cls-5" x1="194.1" y1="347.88" x2="128.6" y2="41.88"/>
      <line class="cls-5" x1="207.1" y1="346.38" x2="169.1" y2="35.72"/>
      <line class="cls-5" x1="221.73" y1="344.88" x2="221.73" y2="32.38"/>
      <line class="cls-5" x1="233.6" y1="344.88" x2="274.1" y2="36.88"/>
      <line class="cls-5" x1="249.6" y1="347.38" x2="306.96" y2="43.38"/>
    </g>
  </g>
</svg>
