<svg xmlns="http://www.w3.org/2000/svg" viewBox="0 0 122 129" id="el_r12nBsInm"><style>@-webkit-keyframes el_rylnhroL2m_HJllwoL3X_Animation{0%{-webkit-transform: translate(1.49896240234375px, 72.2232666015625px) translate(-1.49896240234375px, -72.2232666015625px) translate(0px, 0px);transform: translate(1.49896240234375px, 72.2232666015625px) translate(-1.49896240234375px, -72.2232666015625px) translate(0px, 0px);}16.67%{-webkit-transform: translate(1.49896240234375px, 72.2232666015625px) translate(-1.49896240234375px, -72.2232666015625px) translate(0px, 0px);transform: translate(1.49896240234375px, 72.2232666015625px) translate(-1.49896240234375px, -72.2232666015625px) translate(0px, 0px);}33.33%{-webkit-transform: translate(1.49896240234375px, 72.2232666015625px) translate(-1.49896240234375px, -72.2232666015625px) translate(-30px, 0px);transform: translate(1.49896240234375px, 72.2232666015625px) translate(-1.49896240234375px, -72.2232666015625px) translate(-30px, 0px);}50%{-webkit-transform: translate(1.49896240234375px, 72.2232666015625px) translate(-1.49896240234375px, -72.2232666015625px) translate(0px, 0px);transform: translate(1.49896240234375px, 72.2232666015625px) translate(-1.49896240234375px, -72.2232666015625px) translate(0px, 0px);}100%{-webkit-transform: translate(1.49896240234375px, 72.2232666015625px) translate(-1.49896240234375px, -72.2232666015625px) translate(0px, 0px);transform: translate(1.49896240234375px, 72.2232666015625px) translate(-1.49896240234375px, -72.2232666015625px) translate(0px, 0px);}}@keyframes el_rylnhroL2m_HJllwoL3X_Animation{0%{-webkit-transform: translate(1.49896240234375px, 72.2232666015625px) translate(-1.49896240234375px, -72.2232666015625px) translate(0px, 0px);transform: translate(1.49896240234375px, 72.2232666015625px) translate(-1.49896240234375px, -72.2232666015625px) translate(0px, 0px);}16.67%{-webkit-transform: translate(1.49896240234375px, 72.2232666015625px) translate(-1.49896240234375px, -72.2232666015625px) translate(0px, 0px);transform: translate(1.49896240234375px, 72.2232666015625px) translate(-1.49896240234375px, -72.2232666015625px) translate(0px, 0px);}33.33%{-webkit-transform: translate(1.49896240234375px, 72.2232666015625px) translate(-1.49896240234375px, -72.2232666015625px) translate(-30px, 0px);transform: translate(1.49896240234375px, 72.2232666015625px) translate(-1.49896240234375px, -72.2232666015625px) translate(-30px, 0px);}50%{-webkit-transform: translate(1.49896240234375px, 72.2232666015625px) translate(-1.49896240234375px, -72.2232666015625px) translate(0px, 0px);transform: translate(1.49896240234375px, 72.2232666015625px) translate(-1.49896240234375px, -72.2232666015625px) translate(0px, 0px);}100%{-webkit-transform: translate(1.49896240234375px, 72.2232666015625px) translate(-1.49896240234375px, -72.2232666015625px) translate(0px, 0px);transform: translate(1.49896240234375px, 72.2232666015625px) translate(-1.49896240234375px, -72.2232666015625px) translate(0px, 0px);}}@-webkit-keyframes el_SJO2nHj827_H17xDiUnQ_Animation{0%{-webkit-transform: translate(44.3699951171875px, 1.99493408203125px) translate(-44.3699951171875px, -1.99493408203125px) translate(0px, 0px);transform: translate(44.3699951171875px, 1.99493408203125px) translate(-44.3699951171875px, -1.99493408203125px) translate(0px, 0px);}16.67%{-webkit-transform: translate(44.3699951171875px, 1.99493408203125px) translate(-44.3699951171875px, -1.99493408203125px) translate(0px, 0px);transform: translate(44.3699951171875px, 1.99493408203125px) translate(-44.3699951171875px, -1.99493408203125px) translate(0px, 0px);}33.33%{-webkit-transform: translate(44.3699951171875px, 1.99493408203125px) translate(-44.3699951171875px, -1.99493408203125px) translate(-30px, 0px);transform: translate(44.3699951171875px, 1.99493408203125px) translate(-44.3699951171875px, -1.99493408203125px) translate(-30px, 0px);}66.67%{-webkit-transform: translate(44.3699951171875px, 1.99493408203125px) translate(-44.3699951171875px, -1.99493408203125px) translate(125px, 0px);transform: translate(44.3699951171875px, 1.99493408203125px) translate(-44.3699951171875px, -1.99493408203125px) translate(125px, 0px);}100%{-webkit-transform: translate(44.3699951171875px, 1.99493408203125px) translate(-44.3699951171875px, -1.99493408203125px) translate(0px, 0px);transform: translate(44.3699951171875px, 1.99493408203125px) translate(-44.3699951171875px, -1.99493408203125px) translate(0px, 0px);}}@keyframes el_SJO2nHj827_H17xDiUnQ_Animation{0%{-webkit-transform: translate(44.3699951171875px, 1.99493408203125px) translate(-44.3699951171875px, -1.99493408203125px) translate(0px, 0px);transform: translate(44.3699951171875px, 1.99493408203125px) translate(-44.3699951171875px, -1.99493408203125px) translate(0px, 0px);}16.67%{-webkit-transform: translate(44.3699951171875px, 1.99493408203125px) translate(-44.3699951171875px, -1.99493408203125px) translate(0px, 0px);transform: translate(44.3699951171875px, 1.99493408203125px) translate(-44.3699951171875px, -1.99493408203125px) translate(0px, 0px);}33.33%{-webkit-transform: translate(44.3699951171875px, 1.99493408203125px) translate(-44.3699951171875px, -1.99493408203125px) translate(-30px, 0px);transform: translate(44.3699951171875px, 1.99493408203125px) translate(-44.3699951171875px, -1.99493408203125px) translate(-30px, 0px);}66.67%{-webkit-transform: translate(44.3699951171875px, 1.99493408203125px) translate(-44.3699951171875px, -1.99493408203125px) translate(125px, 0px);transform: translate(44.3699951171875px, 1.99493408203125px) translate(-44.3699951171875px, -1.99493408203125px) translate(125px, 0px);}100%{-webkit-transform: translate(44.3699951171875px, 1.99493408203125px) translate(-44.3699951171875px, -1.99493408203125px) translate(0px, 0px);transform: translate(44.3699951171875px, 1.99493408203125px) translate(-44.3699951171875px, -1.99493408203125px) translate(0px, 0px);}}#el_r12nBsInm *{-webkit-animation-duration: 3s;animation-duration: 3s;-webkit-animation-iteration-count: infinite;animation-iteration-count: infinite;-webkit-animation-timing-function: cubic-bezier(0, 0, 1, 1);animation-timing-function: cubic-bezier(0, 0, 1, 1);}#el_By-3nriUnX{fill: #ffc912;stroke: #000;stroke-miterlimit: 10;stroke-width: 3px;-webkit-transform: translate(-552.75px, -518.27px);transform: translate(-552.75px, -518.27px);}#el_HkXn3Bo8n7{fill: #070707;-webkit-transform: translate(-552.75px, -518.27px);transform: translate(-552.75px, -518.27px);}#el_By42hHjL3Q{-webkit-transform: translate(-552.75px, -518.27px);transform: translate(-552.75px, -518.27px);}#el_HJr3hrsU37{-webkit-transform: translate(-552.75px, -518.27px);transform: translate(-552.75px, -518.27px);}#el_BkLh3SoI2Q{-webkit-transform: translate(-552.75px, -518.27px);transform: translate(-552.75px, -518.27px);}#el_BkPh3SjU2Q{-webkit-transform: translate(-552.75px, -518.27px);transform: translate(-552.75px, -518.27px);}#el_rJc2hri8nm{stroke-miterlimit: 10;fill: #ff7aef;stroke: #020000;stroke-width: 4px;-webkit-transform: translate(-552.75px, -518.27px);transform: translate(-552.75px, -518.27px);}#el_r1j3hrsUhX{stroke-miterlimit: 10;stroke-width: 3px;fill: #3b1dff;stroke: #050000;-webkit-transform: translate(-552.75px, -518.27px);transform: translate(-552.75px, -518.27px);}#el_rk2nhHj8hQ{-webkit-transform: translate(-552.75px, -518.27px);transform: translate(-552.75px, -518.27px);}#el_SJah2BsLhm{-webkit-transform: translate(-552.75px, -518.27px);transform: translate(-552.75px, -518.27px);}#el_S1022Hi83m{-webkit-transform: translate(-552.75px, -518.27px);transform: translate(-552.75px, -518.27px);}#el_Bk1xhnroUnX{-webkit-transform: translate(-552.75px, -518.27px);transform: translate(-552.75px, -518.27px);}#el_rJxe22rjU3m{-webkit-transform: translate(-552.75px, -518.27px);transform: translate(-552.75px, -518.27px);}#el_HkZl2hSiI2X{fill: #050000;-webkit-transform: translate(-552.75px, -518.27px);transform: translate(-552.75px, -518.27px);}#el_SJO2nHj827_H17xDiUnQ{-webkit-animation-name: el_SJO2nHj827_H17xDiUnQ_Animation;animation-name: el_SJO2nHj827_H17xDiUnQ_Animation;-webkit-transform: translate(44.3699951171875px, 1.99493408203125px) translate(-44.3699951171875px, -1.99493408203125px) translate(0px, 0px);transform: translate(44.3699951171875px, 1.99493408203125px) translate(-44.3699951171875px, -1.99493408203125px) translate(0px, 0px);}#el_rylnhroL2m_HJllwoL3X{-webkit-animation-name: el_rylnhroL2m_HJllwoL3X_Animation;animation-name: el_rylnhroL2m_HJllwoL3X_Animation;-webkit-transform: translate(1.49896240234375px, 72.2232666015625px) translate(-1.49896240234375px, -72.2232666015625px) translate(0px, 0px);transform: translate(1.49896240234375px, 72.2232666015625px) translate(-1.49896240234375px, -72.2232666015625px) translate(0px, 0px);}#el_r1j3hrsUhX_SkArPi8nQ{-webkit-transform: translate(602.2999877929688px, 540.9449462890625px) rotate(0deg) translate(-602.2999877929688px, -540.9449462890625px);transform: translate(602.2999877929688px, 540.9449462890625px) rotate(0deg) translate(-602.2999877929688px, -540.9449462890625px);}#el_SJO2nHj827_S1F-usL2X{-webkit-transform: translate(44.3699951171875px, 1.99493408203125px) rotate(1deg) translate(-44.3699951171875px, -1.99493408203125px);transform: translate(44.3699951171875px, 1.99493408203125px) rotate(1deg) translate(-44.3699951171875px, -1.99493408203125px);}</style>
  <defs>
    
  </defs>
  <title>chancla</title>
  <g id="el_rylnhroL2m_HJllwoL3X" data-animator-group="true" data-animator-type="0"><g id="el_rylnhroL2m">
    <path d="M561.31,645s-12.09-37.38-4.63-35.8c0,0,5-3.62,7.9,0s10.17-4.74,10.17-4.74,9.71-3.17,14.23-9.27,13.32-4.51,13.32-4.51-4.51,6.77-5.19,7.9c-.58,1,30.94,10.62,34.56,15.14,0,0,2.48,5.42-5.2,7.45,0,0,.23,6.32-5.19,6.78,0,0,1.13,6.09-5.88,7.68,0,0-2.26,5.19-7.22,4.74s-24.62-6.33-25.53-7-11.29,2.93-12,4.74c0,0,2.49,6.78-1.35,7.68S563.68,647.1,561.31,645Z" id="el_By-3nriUnX"/>
    <g id="el_SJz33BsUhX">
      <path d="M601.93,630.2a48.87,48.87,0,0,0,5.63,2.64l1.2.46a47.83,47.83,0,0,0,6.27,2.05" id="el_HkXn3Bo8n7"/>
      <path d="M601.17,631.49a57.92,57.92,0,0,0,13.46,5.3c1.88.46,2.67-2.43.8-2.89a54.53,54.53,0,0,1-12.74-5c-1.71-.91-3.22,1.68-1.52,2.59Z" id="el_By42hHjL3Q"/>
    </g>
    <path d="M607.35,623.83c4.12,2.53,8.72,3.77,13.22,5.33,1.83.64,2.62-2.26.8-2.89-4.23-1.47-8.63-2.66-12.5-5-1.66-1-3.16,1.58-1.52,2.59Z" id="el_HJr3hrsU37"/>
    <path d="M612.3,616.27c4.21,2.34,9,3.45,13.16,5.72,1.7.92,3.22-1.67,1.52-2.59-4.2-2.28-9-3.37-13.17-5.72-1.69-.94-3.2,1.66-1.51,2.59Z" id="el_BkLh3SoI2Q"/>
    <path d="M564.36,608.83c-9,4.21-5.67,12.4-3.79,20.33.75,3.14,1.24,10.36,4.29,12.34,2.26,1.48,4.75-.93,6.41-2.31,1.49-1.23-.64-3.34-2.12-2.12-3.7,3.07-4.84-5.17-5.14-6.45q-.68-2.8-1.34-5.62c-1.24-5.28-3-10.69,3.2-13.58,1.75-.82.23-3.4-1.51-2.59Z" id="el_BkPh3SjU2Q"/>
  </g></g>
  <g id="el_SJO2nHj827_H17xDiUnQ" data-animator-group="true" data-animator-type="0"><g id="el_SJO2nHj827">
    <g id="el_HJFn2rsI3X">
      <path d="M655.16,520.39s16.71,2.94,17.84,33.88c0,0-.45,12.43-10.84,25.3S645,597,643.86,599.22s-11.52,11.07-11.74,14.46c0,0-27.11-12-35-15.14,0,0,17.84-26.2,21.91-37,1.28-3.41,15.36-28.91,19.42-33.43S652.67,519.49,655.16,520.39Z" id="el_rJc2hri8nm"/>
      <path d="M602.3,591.77s4.52-36.82,8.13-36.59c0,0,7.23-10.39,15.14-10.39,0,0,13.55-2.26,15.13,0,0,0,7-5.42,10.16-3.39s.68,2.71-.45,2.93-7.9,2-7.68,2.71.91,19.43.68,21c0,0,0,16.26-3.84,24.17,0,0-7.68,12-14.57,17.39l-7.11-3.39,11.52-5.64s7.68-18.3,6.55-28.24c0,0,.68-19-2-21.46s-16.48,2.26-18.74,5.43S607.5,594,607.5,594,604.11,599,602.3,591.77Z" id="el_r1j3hrsUhX"/>
      <path d="M609,562.79c1-.88,2-1.74,3.11-2.55a12.68,12.68,0,0,1,3.17-2.08c1.82-.62,1-3.52-.8-2.89-2.81,1-5.39,3.47-7.6,5.4-1.46,1.27.67,3.39,2.12,2.12Z" id="el_rk2nhHj8hQ"/>
      <path d="M627.91,601.22c-.21,1.78-1.58,3.31-2.07,5a1.5,1.5,0,0,0,2.89.8c.59-2,1.92-3.65,2.18-5.82a1.51,1.51,0,0,0-1.5-1.5,1.54,1.54,0,0,0-1.5,1.5Z" id="el_SJah2BsLhm"/>
      <path d="M626,606.29l-.07.12a1.5,1.5,0,1,0,2.59,1.51l.07-.11a1.5,1.5,0,1,0-2.59-1.52Z" id="el_S1022Hi83m"/>
      <path d="M625.65,606.82v.91a1.5,1.5,0,0,0,3,0v-.91a1.5,1.5,0,0,0-3,0Z" id="el_Bk1xhnroUnX"/>
      <path d="M630.82,601.54a6.47,6.47,0,0,0,.09-1.08,1.54,1.54,0,0,0-1.5-1.5,1.52,1.52,0,0,0-1.5,1.5s0,.47,0,.28a1.55,1.55,0,0,0,1.05,1.85,1.52,1.52,0,0,0,1.84-1.05Z" id="el_rJxe22rjU3m"/>
      <path d="M606.72,560.72l-.06.06a1.5,1.5,0,0,0,2.12,2.12l.06-.06a1.5,1.5,0,0,0-2.12-2.12Z" id="el_HkZl2hSiI2X"/>
    </g>
  </g></g>
</svg>