<svg id="Layer_3" data-name="Layer 3" xmlns="http://www.w3.org/2000/svg" width="224.5" height="256" viewBox="0 0 224.5 256">
  <defs>
    <style>
      .cls-1 {
        fill: #fff;
      }
    </style>
  </defs>
  <title>church</title>
  <g>
    <polygon points="209.17 240 209.17 186.9 217.03 192.07 217.03 173.38 152.5 132.17 152.5 96.67 160.83 87.67 144 71.67 112.5 0 80.83 72 64.83 87.83 72.83 95.99 72.83 131.44 8.5 172.67 8.5 191 15.83 186.29 15.83 240 0 240 0 256 224.5 256 224.5 240 209.17 240"/>
    <polygon class="cls-1" points="136.5 120.13 120.63 120.13 120.63 104.13 104.38 104.13 104.38 120.13 88.38 120.13 88.38 136 104.38 136 104.38 167.88 120.63 167.88 120.63 136 136.5 136 136.5 120.13"/>
    <path class="cls-1" d="M520,695.5l-.06-22.12s.87-15.68,12.06-16.66c4.69-.41,12.38,8.91,12.06,16.16s-.18,22.62-.18,22.62Z" transform="translate(-487.5 -472)"/>
    <path class="cls-1" d="M655.75,695.5l-.06-22.12s.87-15.68,12.06-16.66c4.69-.41,12.38,8.91,12.06,16.16s-.18,22.62-.18,22.62Z" transform="translate(-487.5 -472)"/>
    <path class="cls-1" d="M576.17,712V677s10.5-20.08,23.58-20.29,24.08,19.39,24.08,19.39V712Z" transform="translate(-487.5 -472)"/>
  </g>
</svg>
