<svg id="elote" xmlns="http://www.w3.org/2000/svg" width="587.38" height="166.82" viewBox="0 0 587.38 166.82">
  <defs>
    <style>
      .cls-1 {
        fill: #efde8d;
        stroke: #000;
      }

      .cls-1, .cls-2, .cls-3, .cls-4 {
        stroke-miterlimit: 10;
        stroke-width: 3px;
      }

      .cls-2, .cls-3, .cls-4 {
        fill: #fcfc0b;
      }

      .cls-2 {
        stroke: #020000;
      }

      .cls-3 {
        stroke: #fff;
      }

      .cls-4 {
        stroke: red;
      }
    </style>
  </defs>
  <title>elote</title>
  <g>
    <rect class="cls-1" x="709.81" y="625.87" width="228.85" height="17" transform="translate(-226.77 -641.89) rotate(10.24)"/>
    <path class="cls-2" d="M712.47,556.5,463.75,511.56A121,121,0,0,0,445.2,508c-.76-.09-1.52-.15-2.28-.22l-3.69-.67a12.09,12.09,0,0,0-5,.16c-41.81-1-76.52,19.7-79.82,49.11-3.59,31.94,31.23,62.06,77.77,67.28a2.58,2.58,0,0,0,.29,0l259.34,46.86a12,12,0,0,0,13.94-9.67l16.34-90.45A12,12,0,0,0,712.47,556.5Z" transform="translate(-352.7 -505.44)"/>
    <path class="cls-3" d="M432.52,623.7S452,608,438,594c0,0,24.12-15,5.06-38,0,0,25.73-16,7.34-26,0,0,20.65-6.15,6.62-20.08" transform="translate(-352.7 -505.44)"/>
    <path class="cls-4" d="M407.82,618.67s19.49-15.42,5.49-29.17c0,0,24.12-14.73,5.06-37.32,0,0,25.73-15.71,7.33-25.53,0,0,20.65-6,6.63-19.71" transform="translate(-352.7 -505.44)"/>
    <path class="cls-4" d="M382.29,607s19.48-13.26,5.48-25.08c0,0,24.12-12.67,5.06-32.09,0,0,25.73-13.51,7.33-22,0,0,20.65-5.2,6.63-17" transform="translate(-352.7 -505.44)"/>
    <path class="cls-3" d="M461.05,628.29s19.48-15.71,5.48-29.71c0,0,24.12-15,5.06-38,0,0,25.73-16,7.34-26,0,0,20.65-6.15,6.62-20.07" transform="translate(-352.7 -505.44)"/>
    <path class="cls-2" d="M481.47,632S501,616.27,487,602.27c0,0,24.12-15,5.06-38,0,0,25.73-16,7.34-26,0,0,20.65-6.15,6.62-20.07" transform="translate(-352.7 -505.44)"/>
    <path class="cls-4" d="M503.34,635.93s19.48-15.7,5.48-29.7c0,0,24.12-15,5.06-38,0,0,25.73-16,7.33-26,0,0,20.65-6.16,6.63-20.08" transform="translate(-352.7 -505.44)"/>
    <path class="cls-2" d="M526.67,640.14s19.48-15.7,5.48-29.7c0,0,24.12-15,5.06-38,0,0,25.73-16,7.34-26,0,0,20.65-6.15,6.62-20.07" transform="translate(-352.7 -505.44)"/>
    <path class="cls-4" d="M548.26,644.05s19.48-15.71,5.48-29.71c0,0,24.13-15,5.07-38,0,0,25.72-16,7.33-26,0,0,20.65-6.15,6.63-20.07" transform="translate(-352.7 -505.44)"/>
    <path class="cls-3" d="M570.61,648.74S590.1,633,576.1,619c0,0,24.12-15,5.06-38,0,0,25.73-16,7.33-26,0,0,20.65-6.15,6.63-20.07" transform="translate(-352.7 -505.44)"/>
    <path class="cls-2" d="M590.9,651.75s19.48-15.7,5.48-29.7c0,0,24.13-15,5.07-38,0,0,25.72-16,7.33-26,0,0,20.65-6.15,6.63-20.08" transform="translate(-352.7 -505.44)"/>
    <path class="cls-2" d="M618.39,656.72s19.49-15.7,5.49-29.7c0,0,24.12-15,5.06-38,0,0,25.73-16,7.33-26,0,0,20.65-6.16,6.63-20.08" transform="translate(-352.7 -505.44)"/>
    <path class="cls-3" d="M640.37,661.89s19.48-15.7,5.48-29.7c0,0,24.12-15,5.06-38,0,0,25.73-16,7.33-26,0,0,20.66-6.15,6.63-20.08" transform="translate(-352.7 -505.44)"/>
    <path class="cls-4" d="M664.26,665s19.48-15.71,5.48-29.71c0,0,24.12-15,5.06-38,0,0,25.73-16,7.33-26,0,0,20.66-6.15,6.63-20.07" transform="translate(-352.7 -505.44)"/>
    <path class="cls-4" d="M683.76,668.53s19.48-15.7,5.48-29.7c0,0,24.12-15,5.06-38,0,0,25.73-16,7.33-26,0,0,20.65-6.15,6.63-20.08" transform="translate(-352.7 -505.44)"/>
    <path class="cls-3" d="M618.39,656.72s19.49-15.7,5.49-29.7c0,0,24.12-15,5.06-38,0,0,25.73-16,7.33-26,0,0,20.65-6.16,6.63-20.08" transform="translate(-352.7 -505.44)"/>
    <line class="cls-2" x1="5.58" y1="73.6" x2="356.14" y2="138.61"/>
    <line class="cls-2" x1="5.58" y1="37.72" x2="360.44" y2="100.22"/>
    <line class="cls-2" x1="29.58" y1="12.76" x2="369.63" y2="73.6"/>
  </g>
</svg>
