<svg xmlns="http://www.w3.org/2000/svg" width="434.65" height="554" viewBox="0 0 434.65 554">
  <defs>
    <style>
      .cls-1 {
        fill: none;
        stroke: #020000;
      }

      .cls-1, .cls-2 {
        stroke-miterlimit: 10;
      }

      .cls-2 {
        fill: #00d005;
        stroke: #000;
        stroke-width: 3px;
      }
    </style>
  </defs>
  <title>icons</title>
  <g id="cactus">
    <g id="spikes">
      <line class="cls-1" x1="247.4" y1="486" x2="294.4" y2="514"/>
      <line class="cls-1" x1="145.4" y1="486" x2="115.4" y2="516"/>
      <line class="cls-1" x1="254.4" y1="404" x2="301.4" y2="432"/>
      <line class="cls-1" x1="139.4" y1="373" x2="109.4" y2="412"/>
      <line class="cls-1" x1="136.4" y1="421" x2="106.4" y2="460"/>
    </g>
    <g>
      <line class="cls-1" x1="254.4" y1="304" x2="301.4" y2="332"/>
      <line class="cls-1" x1="387.4" y1="180" x2="434.4" y2="208"/>
      <line class="cls-1" x1="100.4" y1="90" x2="147.4" y2="118"/>
      <line class="cls-1" x1="144.4" y1="174" x2="114.4" y2="213"/>
      <line class="cls-1" x1="30.4" y1="299" x2="0.4" y2="338"/>
      <line class="cls-1" x1="286.4" y1="47" x2="256.4" y2="86"/>
      <line class="cls-1" x1="293.4" y1="95" x2="263.4" y2="134"/>
      <path class="cls-2" d="M828.5,331.09c-20.5-29.5-38.37-29.62-51.12-22.37-12.58,7.15-18.73,21.91-15.69,36,4.6,21.45-2.92,39-10.67,50.4A33.75,33.75,0,0,1,723.07,410H701.75a33.38,33.38,0,0,0-6.75.68V324a12.05,12.05,0,0,0-.35-2.83q.35-3.54.35-7.17a74,74,0,0,0-148,0c0,2.42.13,4.81.35,7.17A12.05,12.05,0,0,0,547,324V481.08c-29.27,1.15-59.35,5.51-75.91,8.25a27.62,27.62,0,0,0-20,14.42c-11.58,22.06-31,69.76-6.06,105.69,16.78,24.14,31.4,24.24,41.83,18.31a27.3,27.3,0,0,0,12.84-29.51c-3.77-17.55,2.38-31.86,8.73-41.24a27.64,27.64,0,0,1,22.87-12.13H547V779a12,12,0,0,0,12,12H683a12,12,0,0,0,12-12V487.34a33.52,33.52,0,0,0,8.06.66c36.05-1.35,73.24-6.75,93.64-10.12a33.78,33.78,0,0,0,24.4-17.62C835.25,433.3,859,375,828.5,331.09Z" transform="translate(-417.1 -238.5)"/>
    </g>
  </g>
  <g id="mustache">
    <path d="M566.5,370.5s23-34,39-21,28-3,28-3,30-3,39,24-34-5-34-5-22,9-41,0C597.5,365.5,553.5,410.5,566.5,370.5Z" transform="translate(-417.1 -238.5)"/>
  </g>
</svg>
