<svg xmlns="http://www.w3.org/2000/svg" width="569.53" height="173.83" viewBox="0 0 569.53 173.83">
  <title>lowrider</title>
  <g id="body">
    <path d="M322,724s-16.67-36,10-61.33c0,0,114-17.34,124-12.67,0,0,58-18.93,100-.8l14,.13v8L677.33,654l-34-32.67s22.67-16.66,31.34-8,42,34,42,34l142.66-.66s33.34,16.66,26,40.66l-8,30s-34.66-2-34.66,2c0,0,16-29.33-13.34-31.33s-40.66,0-51.33,9.33-21.33,34-21.33,34h-234s11.33-24.66-42.67-30-56.67,30-56.67,30Z" transform="translate(-316.86 -610.84)"/>
  </g>
  <g id="frontWheel">
    <path d="M807.11,715.33A34.67,34.67,0,1,0,841.77,750,34.67,34.67,0,0,0,807.11,715.33Zm0,58A23.33,23.33,0,1,1,830.44,750,23.33,23.33,0,0,1,807.11,773.33Z" transform="translate(-316.86 -610.84)"/>
  </g>
  <g id="backWheel">
    <path d="M474,715.33A34.67,34.67,0,1,0,508.67,750,34.67,34.67,0,0,0,474,715.33Zm0,58A23.33,23.33,0,1,1,497.33,750,23.32,23.32,0,0,1,474,773.33Z" transform="translate(-316.86 -610.84)"/>
  </g>
</svg>
