<svg xmlns="http://www.w3.org/2000/svg" width="543.13" height="233.6" viewBox="0 0 543.13 233.6">
  <title>lowrider2</title>
  <g id="body">
    <path d="M350.38,804.75s-26.62-29.42-8.69-61.54c0,0,103.69-50.44,114.63-49,0,0,49.75-35.32,95.24-30.49l13.4-4,2.38,7.64,101.49-35.1-42.18-21.08s16.69-22.65,27.54-16.95,50.21,20,50.21,20l136-43.06s36.78,6,36.91,31.1l1.29,31s-33.7,8.4-32.51,12.22c0,0,6.56-32.76-22.05-26s-38.82,12.09-46.23,24.17-10.26,38.81-10.26,38.81L544.15,752.08s3.49-26.92-49.66-16-45.18,45.49-45.18,45.49Z" transform="translate(-335.49 -571.14)"/>
  </g>
  <g id="frontWheel">
    <path d="M807.11,715.33A34.67,34.67,0,1,0,841.77,750,34.67,34.67,0,0,0,807.11,715.33Zm0,58A23.33,23.33,0,1,1,830.44,750,23.33,23.33,0,0,1,807.11,773.33Z" transform="translate(-335.49 -571.14)"/>
  </g>
  <g id="backWheel">
    <path d="M474,715.33A34.67,34.67,0,1,0,508.67,750,34.67,34.67,0,0,0,474,715.33Zm0,58A23.33,23.33,0,1,1,497.33,750,23.32,23.32,0,0,1,474,773.33Z" transform="translate(-335.49 -571.14)"/>
  </g>
</svg>
