<svg id="mask" xmlns="http://www.w3.org/2000/svg" width="283.89" height="396.66" viewBox="0 0 283.89 396.66">
  <defs>
    <style>
      .cls-1 {
        fill: red;
        stroke: #000;
        stroke-width: 3px;
      }

      .cls-1, .cls-3 {
        stroke-miterlimit: 10;
      }

      .cls-2, .cls-3 {
        fill: #fff;
      }

      .cls-3 {
        stroke: #070707;
        stroke-width: 2px;
      }
    </style>
  </defs>
  <title>luchador</title>
  <g>
    <path class="cls-1" d="M501.5,714.5s8-27-16-118c0,0-6-138,80-191s149,0,149,0,38,34,50,152-40,191-40,191-10,26-36,27-66-5-108-25Z" transform="translate(-483.91 -380.44)"/>
    <path class="cls-2" d="M540.5,501.5s75-49,131-11l18-10,11,21s43-7,52,23,7,75,7,75-2,21-33-10l8,34,13,7s-12,17-10,38-15,42-17,41c0,0-49,10-47,21,0,0-19-26-48-38s-28-30-26-56c0,0,5-29,0-37h23l15-33s-35,14-61-2S538.5,498.5,540.5,501.5Z" transform="translate(-483.91 -380.44)"/>
    <path d="M568,518s45-28,89-10c0,0,17.5,6.5-7.5,34.5s-73-11-81-20S568,518,568,518Z" transform="translate(-483.91 -380.44)"/>
    <path d="M708.5,523.5s30-6,48,42c0,0,2,29-19,11S701.5,545.5,708.5,523.5Z" transform="translate(-483.91 -380.44)"/>
    <path d="M643.5,607.5s30-84,47-97c0,0,36,81,31,112,0,0-34-19-36-14C685.5,608.5,659.5,605.5,643.5,607.5Z" transform="translate(-483.91 -380.44)"/>
    <path d="M687.5,635.5s37,13,34,30-23,13-39,11-48-11-53-28S688.5,630.5,687.5,635.5Z" transform="translate(-483.91 -380.44)"/>
    <polygon class="cls-3" points="218.66 55.53 212.58 38.41 202.69 53.65 184.53 54.14 195.97 68.26 190.83 85.68 207.78 79.16 222.76 89.44 221.81 71.3 236.21 60.23 218.66 55.53"/>
  </g>
</svg>
