<svg id="Layer_3" data-name="Layer 3" xmlns="http://www.w3.org/2000/svg" width="687.15" height="616.51" viewBox="0 0 687.15 616.51">
  <defs>
    <style>
      .cls-1 {
        fill: #c88500;
        stroke-width: 8px;
      }

      .cls-1, .cls-2 {
        stroke: #000;
      }

      .cls-1, .cls-2, .cls-3 {
        stroke-miterlimit: 10;
      }

      .cls-2, .cls-3 {
        fill: #ff5cc5;
        stroke-width: 3px;
      }

      .cls-3 {
        stroke: #020000;
      }
    </style>
  </defs>
  <title>pan</title>
  <g>
    <path class="cls-1" d="M534.11,815.72s-218.4-32.7-261.66-211l-14.24-52.22s-22.16,5.27,6.33-82.3S357.38,300.33,397.48,274s132.93-59.08,157.2-60.13,128.72-12.66,158.26,11.6c0,0,106.56,50.64,153,106.56s70.69,82.3,61.19,141.38-5.27,65.41-19,62.25c0,0,15.83,25.32-8.44,97.06s-153,134-158.26,141.38S574.73,831,534.11,815.72Z" transform="translate(-246 -206.12)"/>
    <path class="cls-2" d="M314,610s21-102,142-128c0,0,61-6,74,5,0,0-4,23,0,27,0,0-81,13-116,51,0,0-65,45-47,123,0,0-33-4-63-69Z" transform="translate(-246 -206.12)"/>
    <path class="cls-2" d="M654.5,646.5c-56-75-115-51-155-30S449,749,449,749c-2.5,14.5,56.5,40.5,56.5,40.5s17.08,9,28,9.88a5.66,5.66,0,0,1,1.2-.13,5.33,5.33,0,0,1,1.36.17c7-.4,9.92-5.64.39-21.92-24-41-8-80,10-105s46-19,90-16S654.5,646.5,654.5,646.5Z" transform="translate(-246 -206.12)"/>
    <path class="cls-2" d="M381,704s-10-93,54-132,91.5-50.5,136.5-28.5c0,0,14-1,18,34,0,0-62-4-113,34s-48,107-48,107S417.5,731.5,381,704Z" transform="translate(-246 -206.12)"/>
    <path class="cls-2" d="M297,607l-19-47s18-88,110-129,142-11,142-11,33.5,13.5,36.5,29.5-17-2-16,25c0,0-91-14-149,10S313.5,565.5,297,607Z" transform="translate(-246 -206.12)"/>
    <path class="cls-2" d="M268.5,547.5c43.18-127.69,92-159,92-159,20.23-13,161-39,161-39h0s18,20-5,46c0,0-98,4-132,19s-103.8,71-102.9,133c-5.68,3.22-11.41,5.78-13.1,4C267.52,550.47,268.22,548.34,268.5,547.5Z" transform="translate(-246 -206.12)"/>
    <path class="cls-2" d="M795.5,703.5c-26-35-35-42-96-182s-133-153-133-153c6,27-1,36-11,41s117,105,113,113-79-58-79-58,10,48-23,32-11,23-11,23c52,22,51,47,39,54s68,54,68,54c48,99,6,82,6,82s-23-32-61-43-52,31-52,31c-52,20-10.5,102-10.5,102,71.5-1,97.5-10,176.5-43S795.5,703.5,795.5,703.5Z" transform="translate(-246 -206.12)"/>
    <path class="cls-2" d="M295,441s22-80,103-147,155.5-59.5,157.5-63.5-13,6,15,33c0,0-57,29-115,30,0,0,63-1,68,2s4,26-2,35-24-10-89,11S289.5,455.5,295,441Z" transform="translate(-246 -206.12)"/>
    <path class="cls-2" d="M556,342l33-29s112,57,162,178c0,0,15.5-50.5-68.5-139.5,0,0-68-49-83-60,0,0,17-12,25-20s100,44,115,77c0,0,54,64,49,124s3,40-24,87c0,0-6,19-25-21s-64-112-92-134S555.5,341.5,556,342Z" transform="translate(-246 -206.12)"/>
    <path class="cls-3" d="M755,573s29,92,53,135c0,0,58-13,84-124,0,0,21.5-38.5-32.5-82.5a48.5,48.5,0,0,0-22,31c-5,22-8-45-8-45s-9.5.5-25-7-4,41-16,72S755,573,755,573Z" transform="translate(-246 -206.12)"/>
    <path class="cls-3" d="M902,532s16-113-6-136-34.5-58.5-80.5-83.5c0,0-55-53-77-63s-95-31-139-25,47,35,47,35,33-1,31,11,77,71,77,71,58,91,50,117c0,0,22,23,35,10s-23-120-37-132-67-79-97-80c0,0,30,3,67,31s55,75,59,67,40,52,25,88S890.5,492.5,902,532Z" transform="translate(-246 -206.12)"/>
  </g>
</svg>
