<svg xmlns="http://www.w3.org/2000/svg" width="449.49" height="351.55" viewBox="0 0 449.49 351.55">
  <defs>
    <style>
      .cls-1 {
        fill: #ff1200;
      }

      .cls-1, .cls-2, .cls-3, .cls-4, .cls-5, .cls-6 {
        stroke: #000;
        stroke-miterlimit: 10;
      }

      .cls-1, .cls-4, .cls-5, .cls-6 {
        stroke-width: 3px;
      }

      .cls-2 {
        fill: #719200;
      }

      .cls-2, .cls-3 {
        stroke-width: 4px;
      }

      .cls-3 {
        fill: none;
      }

      .cls-4 {
        fill: #ff0;
      }

      .cls-5 {
        fill: #f3f74b;
      }

      .cls-6 {
        fill: #f44051;
      }
    </style>
  </defs>
  <title>peppers</title>
  <g id="redPepper">
    <g>
      <path class="cls-1" d="M526,659s-37.81-10-36-114.2c0-.51,0-1-.06-1.53-.68-7.67-5.61-72.89,23.57-74.77,17-1.1,26.84,3.55,32.2,7.95a14.55,14.55,0,0,0,13.84,2.77,20.21,20.21,0,0,1,10.19-.84,18.76,18.76,0,0,1,2.89.78,18.74,18.74,0,0,0,1.8.56c40.6,9.95,52.08,23.89,55.08,34.78,4.4,16-5,41.47-7.46,47.63a14.58,14.58,0,0,0-.79,2.84c-2.21,12.73-5.06,26.34-8.75,40.66-3,11.62-6.25,22.56-9.63,32.78a14.73,14.73,0,0,1-4.83,7,96.42,96.42,0,0,1-20.41,12.38c-2.79,1.25-5.5,2.29-8.08,3.18a14.56,14.56,0,0,1-13-1.68l-.23-.16a15.11,15.11,0,0,0-16.24-.77C536.86,660.09,532.36,660.79,526,659Z" transform="translate(-398.01 -323.98)"/>
      <path class="cls-2" d="M569.5,478.5s12-24,26-29,27-3,27-2c0,0,8,4-3,26,0,0-12,14-18-5,0,0-9.15-1-13.57,15Z" transform="translate(-398.01 -323.98)"/>
      <path class="cls-3" d="M574,506c0,59.7-17.89,108-40,108" transform="translate(-398.01 -323.98)"/>
      <path class="cls-3" d="M523.92,506.21c-18.16,22.28-19,51.61-1.84,65.58" transform="translate(-398.01 -323.98)"/>
    </g>
  </g>
  <g id="yellowPepper">
    <g>
      <path class="cls-4" d="M740.91,673.9s33.94-2.56,47.83-89.95a11.07,11.07,0,0,1,.28-1.27c1.72-6.3,15.6-60-9.17-66.06-14.48-3.52-23.57-1.12-28.83,1.74a12.94,12.94,0,0,1-12.29.21,18.11,18.11,0,0,0-8.62-2.25,16.82,16.82,0,0,0-2.61.21,14.63,14.63,0,0,1-1.62.2c-36.33,2.13-48.26,12-52.44,20.68-6.15,12.69-1.8,35.42-.65,40.94a12.24,12.24,0,0,1,.26,2.49c0,11,.44,22.78,1.49,35.3.86,10.17,2,19.81,3.42,28.86a12.48,12.48,0,0,0,3.12,6.55A84.07,84.07,0,0,0,696.77,665c2.21,1.47,4.38,2.76,6.47,3.89a13,13,0,0,0,11.44.58l.22-.1A13.47,13.47,0,0,1,729,671.2C731.43,673.16,735.19,674.43,740.91,673.9Z" transform="translate(-398.01 -323.98)"/>
      <path class="cls-2" d="M730.28,516.45s-6.75-21.88-18-28.18-22.74-6.62-22.88-5.78c0,0-7.47,2.12-1.28,22.18,0,0,8.23,13.52,16.2-1.44,0,0,8,.56,9.43,14.6Z" transform="translate(-398.01 -323.98)"/>
      <path class="cls-3" d="M722.35,538.75c-8.84,49.88-.63,93,18.36,96.33" transform="translate(-398.01 -323.98)"/>
      <path class="cls-3" d="M765.32,546.54c12.29,21.38,8.66,46-8.13,55.08" transform="translate(-398.01 -323.98)"/>
    </g>
  </g>
  <g id="yellowheatL">
    <path class="cls-5" d="M739.6,459.35s8.47-29.73,27.72-32.08,3.85-30.52,3.85-30.52-4.62-23.47-1.54-24.25-24.64,24.25-20,35.21S755,421.79,755,421.79,728.82,447.61,739.6,459.35Z" transform="translate(-398.01 -323.98)"/>
  </g>
  <g id="yellowheatR">
    <path class="cls-5" d="M798.21,501.5s10.82-38,35.42-41,4.92-39,4.92-39-5.91-30-2-31-31.48,31-25.58,45,6.89,18,6.89,18S784.43,486.5,798.21,501.5Z" transform="translate(-398.01 -323.98)"/>
  </g>
  <g id="red2">
    <path class="cls-6" d="M506.66,430s-10.36-35.78-33.9-38.6-4.7-36.72-4.7-36.72,5.65-28.24,1.88-29.18,30.13,29.18,24.48,42.36-6.59,16.95-6.59,16.95S519.84,415.88,506.66,430Z" transform="translate(-398.01 -323.98)"/>
  </g>
  <g id="red1">
    <path class="cls-6" d="M470,492.3s-21.78-33-46.54-28.48-16.35-35.76-16.35-35.76-3.16-30.43-7.28-30.2S439.54,418,438,433.13s-1.35,19.26-1.35,19.26S478.87,473.82,470,492.3Z" transform="translate(-398.01 -323.98)"/>
  </g>
  <g id="red3">
    <path class="cls-6" d="M562.49,412.61s8.5-29.82,27.8-32.18,3.86-30.61,3.86-30.61-4.63-23.54-1.54-24.32-24.71,24.32-20.08,35.31,5.41,14.13,5.41,14.13S551.68,400.84,562.49,412.61Z" transform="translate(-398.01 -323.98)"/>
  </g>
  <g id="red4">
    <path class="cls-6" d="M655.21,445.5s10.82-38,35.42-41,4.92-39,4.92-39-5.91-30-2-31-31.48,31-25.58,45,6.89,18,6.89,18S641.43,430.5,655.21,445.5Z" transform="translate(-398.01 -323.98)"/>
  </g>
</svg>
