<svg id="Layer_1" data-name="Layer 1" xmlns="http://www.w3.org/2000/svg" width="631.12" height="654.72" viewBox="0 0 631.12 654.72">
  <defs>
    <style>
      .cls-1, .cls-2 {
        fill: #ec6054;
      }

      .cls-1, .cls-4, .cls-5, .cls-6, .cls-7, .cls-8 {
        stroke: #000;
        stroke-miterlimit: 10;
        stroke-width: 3px;
      }

      .cls-3 {
        fill: #ef4746;
      }

      .cls-4 {
        fill: #59ad32;
      }

      .cls-5 {
        fill: #ce2f29;
      }

      .cls-6 {
        fill: #f3c210;
      }

      .cls-7 {
        fill: #93278f;
      }

      .cls-8 {
        fill: #f20a7e;
      }
    </style>
  </defs>
  <title>pinata</title>
  <g id="Layer_2" data-name="Layer 2">
    <polygon class="cls-1" points="428.2 317.33 588.18 166.98 383.7 213.89 313.93 10.62 247.78 212.69 51.72 174.2 200.87 322.14 72.17 462.87 253.31 422.46 253.91 422.22 319.95 569.92 319.95 563.91 377.92 421.02 577.35 461.67 428.2 317.33"/>
  </g>
  <g id="Layer_3" data-name="Layer 3">
    <g>
      <path class="cls-2" d="M327.75,647.65s-8.42-38.49-40.89,65c0,0,7.21-10.82,20.44-27.66S315.72,674.11,327.75,647.65Z" transform="translate(-255.58 -184.78)"/>
      <path class="cls-2" d="M335.45,645.85s-21.53-33-15.28,75.17c0,0,2.89-12.63,9.27-33.07S333.53,675,335.45,645.85Z" transform="translate(-255.58 -184.78)"/>
      <path class="cls-2" d="M344.23,648.49s-27.54-28.26-.36,76.74c0,0,.36-13,2.77-34.28S348,677.24,344.23,648.49Z" transform="translate(-255.58 -184.78)"/>
      <path class="cls-2" d="M350.85,643s-37.29-12.75,34.28,68.68c0,0-5.54-11.79-13-31.87S367.2,666.9,350.85,643Z" transform="translate(-255.58 -184.78)"/>
      <path class="cls-3" d="M338.94,675.92s-21.53-33-15.16,75.29c0,0,2.89-12.63,9.26-33.07S337.13,704.91,338.94,675.92Z" transform="translate(-255.58 -184.78)"/>
      <path class="cls-3" d="M331.36,663.29s-8.42-38.49-40.89,65c0,0,7.21-10.83,20.44-27.67S319.33,689.75,331.36,663.29Z" transform="translate(-255.58 -184.78)"/>
      <path class="cls-3" d="M356.5,660.88s-19.73-34.16-19.25,74.34c0,0,3.61-12.51,11.07-32.6S353,689.75,356.5,660.88Z" transform="translate(-255.58 -184.78)"/>
      <path class="cls-3" d="M363.72,675s-27.31-28.39-1,76.73c0,0,.49-13,3-34.28S367.32,703.82,363.72,675Z" transform="translate(-255.58 -184.78)"/>
    </g>
    <g>
      <path class="cls-2" d="M296.48,357.77s-8.42-38.49-40.9,65c0,0,7.22-10.82,20.45-27.66S284.45,384.23,296.48,357.77Z" transform="translate(-255.58 -184.78)"/>
      <path class="cls-2" d="M304.18,356s-21.53-33-15.28,75.17c0,0,2.89-12.62,9.26-33.07S302.25,385.08,304.18,356Z" transform="translate(-255.58 -184.78)"/>
      <path class="cls-2" d="M313,358.61s-27.55-28.26-.36,76.74c0,0,.36-13,2.76-34.28S316.69,387.36,313,358.61Z" transform="translate(-255.58 -184.78)"/>
      <path class="cls-2" d="M319.57,353.08s-37.28-12.75,34.28,68.68c0,0-5.53-11.78-13-31.87S335.93,377,319.57,353.08Z" transform="translate(-255.58 -184.78)"/>
      <path class="cls-3" d="M307.67,386s-21.54-33-15.16,75.3c0,0,2.89-12.63,9.26-33.08S305.86,415,307.67,386Z" transform="translate(-255.58 -184.78)"/>
      <path class="cls-3" d="M300.09,373.41s-8.42-38.49-40.9,64.95c0,0,7.22-10.82,20.45-27.66S288.06,399.87,300.09,373.41Z" transform="translate(-255.58 -184.78)"/>
      <path class="cls-3" d="M325.23,371S305.5,336.84,306,445.34c0,0,3.61-12.51,11.07-32.6S321.74,399.87,325.23,371Z" transform="translate(-255.58 -184.78)"/>
      <path class="cls-3" d="M332.44,385.08s-27.3-28.39-1,76.74c0,0,.48-13,3-34.28S336.05,413.94,332.44,385.08Z" transform="translate(-255.58 -184.78)"/>
    </g>
    <g>
      <path class="cls-2" d="M562.3,191.78s-8.42-38.49-40.89,65c0,0,7.21-10.83,20.44-27.67S550.27,218.25,562.3,191.78Z" transform="translate(-255.58 -184.78)"/>
      <path class="cls-2" d="M570,190s-21.53-33-15.28,75.18c0,0,2.89-12.63,9.26-33.08S568.07,219.09,570,190Z" transform="translate(-255.58 -184.78)"/>
      <path class="cls-2" d="M578.78,192.63s-27.54-28.27-.36,76.74c0,0,.36-13,2.77-34.28S582.51,221.37,578.78,192.63Z" transform="translate(-255.58 -184.78)"/>
      <path class="cls-2" d="M585.4,187.09s-37.29-12.75,34.28,68.68c0,0-5.54-11.78-13-31.87S601.75,211,585.4,187.09Z" transform="translate(-255.58 -184.78)"/>
      <path class="cls-3" d="M573.49,220.05s-21.53-33-15.16,75.3c0,0,2.89-12.63,9.26-33.08S571.68,249,573.49,220.05Z" transform="translate(-255.58 -184.78)"/>
      <path class="cls-3" d="M565.91,207.42s-8.42-38.49-40.9,65c0,0,7.22-10.82,20.45-27.66S553.88,233.88,565.91,207.42Z" transform="translate(-255.58 -184.78)"/>
      <path class="cls-3" d="M591.05,205s-19.73-34.16-19.25,74.33c0,0,3.61-12.51,11.07-32.6S587.56,233.88,591.05,205Z" transform="translate(-255.58 -184.78)"/>
      <path class="cls-3" d="M598.27,219.09s-27.31-28.39-1,76.74c0,0,.48-13,3-34.28S601.87,248,598.27,219.09Z" transform="translate(-255.58 -184.78)"/>
    </g>
    <g>
      <path class="cls-2" d="M829.33,350.56s-8.42-38.49-40.9,64.95c0,0,7.22-10.83,20.45-27.67S817.3,377,829.33,350.56Z" transform="translate(-255.58 -184.78)"/>
      <path class="cls-2" d="M837,348.75s-21.53-33-15.27,75.18c0,0,2.88-12.63,9.26-33.08S835.1,377.86,837,348.75Z" transform="translate(-255.58 -184.78)"/>
      <path class="cls-2" d="M845.8,351.4s-27.54-28.27-.36,76.74c0,0,.36-13,2.77-34.28S849.53,380.15,845.8,351.4Z" transform="translate(-255.58 -184.78)"/>
      <path class="cls-2" d="M852.42,345.87s-37.29-12.75,34.28,68.68c0,0-5.53-11.79-13-31.88S868.78,369.8,852.42,345.87Z" transform="translate(-255.58 -184.78)"/>
      <path class="cls-3" d="M840.51,378.82s-21.53-32.95-15.15,75.3c0,0,2.88-12.63,9.26-33.08S838.71,407.81,840.51,378.82Z" transform="translate(-255.58 -184.78)"/>
      <path class="cls-3" d="M832.93,366.19S824.51,327.7,792,431.14c0,0,7.22-10.82,20.45-27.66S820.91,392.65,832.93,366.19Z" transform="translate(-255.58 -184.78)"/>
      <path class="cls-3" d="M858.07,363.79s-19.72-34.16-19.24,74.33c0,0,3.61-12.51,11.06-32.6S854.58,392.65,858.07,363.79Z" transform="translate(-255.58 -184.78)"/>
      <path class="cls-3" d="M865.29,377.86s-27.3-28.39-1,76.74c0,0,.48-13,3-34.28S868.9,406.73,865.29,377.86Z" transform="translate(-255.58 -184.78)"/>
    </g>
    <g>
      <path class="cls-2" d="M807.68,636.83s-8.42-38.49-40.9,64.95c0,0,7.22-10.83,20.45-27.67S795.65,663.29,807.68,636.83Z" transform="translate(-255.58 -184.78)"/>
      <path class="cls-2" d="M815.37,635s-21.53-33-15.27,75.18c0,0,2.88-12.63,9.26-33.08S813.45,664.13,815.37,635Z" transform="translate(-255.58 -184.78)"/>
      <path class="cls-2" d="M824.15,637.67s-27.54-28.27-.36,76.74c0,0,.36-13,2.77-34.28S827.88,666.42,824.15,637.67Z" transform="translate(-255.58 -184.78)"/>
      <path class="cls-2" d="M830.77,632.13s-37.29-12.74,34.28,68.69c0,0-5.53-11.79-13-31.88S847.13,656.07,830.77,632.13Z" transform="translate(-255.58 -184.78)"/>
      <path class="cls-3" d="M818.86,665.09s-21.53-33-15.15,75.3c0,0,2.88-12.63,9.26-33.08S817.06,694.08,818.86,665.09Z" transform="translate(-255.58 -184.78)"/>
      <path class="cls-3" d="M811.28,652.46s-8.42-38.49-40.89,64.95c0,0,7.21-10.82,20.45-27.66S799.26,678.92,811.28,652.46Z" transform="translate(-255.58 -184.78)"/>
      <path class="cls-3" d="M836.42,650.06s-19.72-34.16-19.24,74.33c0,0,3.61-12.51,11.06-32.6S832.93,678.92,836.42,650.06Z" transform="translate(-255.58 -184.78)"/>
      <path class="cls-3" d="M843.64,664.13s-27.3-28.39-1,76.74c0,0,.48-13,3-34.28S847.25,693,843.64,664.13Z" transform="translate(-255.58 -184.78)"/>
    </g>
    <g>
      <path class="cls-2" d="M562.3,735.46s-8.42-38.49-40.89,64.95c0,0,7.21-10.83,20.44-27.67S550.27,761.92,562.3,735.46Z" transform="translate(-255.58 -184.78)"/>
      <path class="cls-2" d="M570,733.65s-21.53-32.95-15.28,75.18c0,0,2.89-12.63,9.26-33.08S568.07,762.76,570,733.65Z" transform="translate(-255.58 -184.78)"/>
      <path class="cls-2" d="M578.78,736.3S551.24,708,578.42,813c0,0,.36-13,2.77-34.28S582.51,765.05,578.78,736.3Z" transform="translate(-255.58 -184.78)"/>
      <path class="cls-2" d="M585.4,730.77S548.11,718,619.68,799.45c0,0-5.54-11.79-13-31.88S601.75,754.7,585.4,730.77Z" transform="translate(-255.58 -184.78)"/>
      <path class="cls-3" d="M573.49,763.72s-21.53-33-15.16,75.3c0,0,2.89-12.63,9.26-33.08S571.68,792.71,573.49,763.72Z" transform="translate(-255.58 -184.78)"/>
      <path class="cls-3" d="M565.91,751.09s-8.42-38.49-40.9,65c0,0,7.22-10.83,20.45-27.67S553.88,777.56,565.91,751.09Z" transform="translate(-255.58 -184.78)"/>
      <path class="cls-3" d="M591.05,748.69S571.32,714.53,571.8,823c0,0,3.61-12.51,11.07-32.59S587.56,777.56,591.05,748.69Z" transform="translate(-255.58 -184.78)"/>
      <path class="cls-3" d="M598.27,762.76s-27.31-28.39-1,76.74c0,0,.48-13,3-34.28S601.87,791.63,598.27,762.76Z" transform="translate(-255.58 -184.78)"/>
    </g>
  </g>
  <g id="Layer_6" data-name="Layer 6">
    <g>
      <circle class="cls-4" cx="311.53" cy="323.35" r="102.24"/>
      <circle class="cls-5" cx="311.53" cy="325.75" r="72.17"/>
      <circle class="cls-6" cx="311.53" cy="325.75" r="37.29"/>
    </g>
  </g>
  <g id="Layer_5" data-name="Layer 5">
    <g>
      <path class="cls-7" d="M445,496.7s43.3-52.93,49.31-97.43l-20.45-4.81s-8.42,39.69-54.12,77Z" transform="translate(-255.58 -184.78)"/>
      <path class="cls-8" d="M419.77,467.83s43.9-32,54.12-75.78L451,388.44s-3.85,23.82-52.92,56.54Z" transform="translate(-255.58 -184.78)"/>
      <path class="cls-6" d="M395.71,446.18s48.72-13.83,54.73-58.34l-27.67-6s1.21,10.82-44.5,48.11Z" transform="translate(-255.58 -184.78)"/>
      <path class="cls-4" d="M378.87,428.14S412,422.72,426.38,383l-36.68-6.61s9.62-10.83-36.09,26.46Z" transform="translate(-255.58 -184.78)"/>
    </g>
    <g>
      <path class="cls-7" d="M643,397s22.37,64.6,57.13,93.1l14.8-14.91s-29.35-28-37.17-86.48Z" transform="translate(-255.58 -184.78)"/>
      <path class="cls-8" d="M680.78,390.61s4.33,54.13,36.2,85.76l15-17.56s-18.28-15.76-20.45-74.7Z" transform="translate(-255.58 -184.78)"/>
      <path class="cls-6" d="M711.81,381.47s-13.71,48.71,21.05,77.22l19.61-20.45s-9.87-4.69-17.69-63.15Z" transform="translate(-255.58 -184.78)"/>
      <path class="cls-4" d="M736.11,376.66s-12.75,31,13.47,64.11L774.48,413s4.21,13.83-3.61-44.62Z" transform="translate(-255.58 -184.78)"/>
    </g>
    <g>
      <path class="cls-7" d="M501.56,609.76S477.26,547.1,441.42,520l-14.19,15.52s28.14,23.33,38.24,81.43Z" transform="translate(-255.58 -184.78)"/>
      <path class="cls-8" d="M464.63,618.66s-6.49-54-39.57-84.31l-14.31,18.16s18.88,15,23.33,73.85Z" transform="translate(-255.58 -184.78)"/>
      <path class="cls-6" d="M434.2,626.6s11.55-46.79-24.3-73.85l-18.76,21.17s10.1.6,20.21,58.7Z" transform="translate(-255.58 -184.78)"/>
      <path class="cls-4" d="M410.15,632.62s11.3-29.23-16.24-61.23l-23.7,28.75s-6.37-20.81,3.85,37.29Z" transform="translate(-255.58 -184.78)"/>
    </g>
    <path class="cls-7" d="M510.46,382.67s83.84,26.46,125.81,10.59L626.65,362s-51.48,9-106-13.59Z" transform="translate(-255.58 -184.78)"/>
    <path class="cls-8" d="M523.81,346.71S583.35,373.65,626.65,362L617,339.13s-31.27,5.29-83.36-22.25Z" transform="translate(-255.58 -184.78)"/>
    <path class="cls-6" d="M531.39,315.31S574.93,355,617,339.13l-7.22-27.67s-17.8,3.25-72.41-19.24Z" transform="translate(-255.58 -184.78)"/>
    <path class="cls-4" d="M539.33,291.86s28.74,25.74,70.48,19.6l-12-33.67s6.26,2.4-48.23-20.09Z" transform="translate(-255.58 -184.78)"/>
    <path class="cls-7" d="M517.2,629s67.47-18.41,109.45-5.17L617,650.18s-36.93-12.39-91.41,6.49Z" transform="translate(-255.58 -184.78)"/>
    <path class="cls-8" d="M526.82,655.47s48.11-16.36,91.41-6.5l-9.62,19.25s-31.27-4.45-83.36,18.76Z" transform="translate(-255.58 -184.78)"/>
    <path class="cls-6" d="M525.62,686.74s39.81-30.67,81.79-17.32l-7.22,23.22s-17.8-2.77-72.41,16.23Z" transform="translate(-255.58 -184.78)"/>
    <path class="cls-4" d="M529.7,709.11s28.75-21.65,70.49-16.47l-12,28.26s6.26-2-48.23,17Z" transform="translate(-255.58 -184.78)"/>
    <g>
      <path class="cls-7" d="M704.83,513.54s-45.46,51.12-53.28,95.38l20.21,5.65s10-39.33,57.25-74.69Z" transform="translate(-255.58 -184.78)"/>
      <path class="cls-8" d="M728.89,543.49s-45.1,30.19-57.13,73.49l22.73,4.57S699.3,598,749.7,567.18Z" transform="translate(-255.58 -184.78)"/>
      <path class="cls-6" d="M752,566.1s-49.19,11.79-57,56l27.43,7.1s-.73-10.83,46.42-46.31Z" transform="translate(-255.58 -184.78)"/>
      <path class="cls-4" d="M768.1,584.74s-33.32,4.09-49.31,43.19L755.23,636s-10.1,10.47,37.17-25Z" transform="translate(-255.58 -184.78)"/>
    </g>
  </g>
</svg>
