<svg id="Layer_3" data-name="Layer 3" xmlns="http://www.w3.org/2000/svg" width="984.26" height="365" viewBox="0 0 984.26 365">
  <defs>
    <style>
      .cls-1 {
        fill: #ffff08;
        stroke: #000;
        stroke-miterlimit: 10;
        stroke-width: 3px;
      }
    </style>
  </defs>
  <title>plantain</title>
  <g>
    <path class="cls-1" d="M183,593s84,127,312,142,410.5-10.5,420.5-22.5,100-43,139-16,44-36,44-36-88-28-122-29c0,0-83-47-126-46s-238-14-250-8c-13.42,6.71-230-28-233-34s-166-74-166-65-50-105-44-96c0,0-35-18-40,15,0,0,19,7,19,12s12,36,18,57S171.5,552.5,183,593Z" transform="translate(-115.83 -376.1)"/>
    <path d="M118,398s0-18,18-20c0,0,15,0,20,4,0,0,2-2,5,11l6,15-24.5,21.5s-8-28-8-23C134.5,406.5,117.5,397.5,118,398Z" transform="translate(-115.83 -376.1)"/>
    <path d="M1073,653l26,8s-7,38-18,40-6.5,5.5-36.5-9.5C1044.5,691.5,1066.5,644.5,1073,653Z" transform="translate(-115.83 -376.1)"/>
    <path d="M852.5,663.5s25,12,46,7S947,658,947,658s0-15-46-11-97,11-97,11Z" transform="translate(-115.83 -376.1)"/>
    <path d="M229.75,532.23c9.82,10,19.26,21.13,30.56,29.49a55.2,55.2,0,0,0,15.8,8.08c6.5,2.15,13.18,3.8,18.13,8.84,1.36,1.38,3.48-.74,2.12-2.12-8.51-8.66-21.94-8.95-31.86-15.51-12.35-8.17-22.32-20.41-32.62-30.9-1.36-1.38-3.48.74-2.13,2.12Z" transform="translate(-115.83 -376.1)"/>
    <path d="M331.19,595.45l18.18,7.8c1.32.56,2.83-.63,2.05-2.06a12.48,12.48,0,0,0-8.74-6.45c-1.19-.23-2.48,1-1.7,2.21a15.72,15.72,0,0,0,8,6.26,1.51,1.51,0,0,0,1.69-2.2,11.11,11.11,0,0,0-10.59-5.46c-.87.07-1.83.92-1.45,1.9a10.28,10.28,0,0,0,9.53,6.79,1.5,1.5,0,0,0,1.29-2.25,21.27,21.27,0,0,0-17.14-10.85,1.5,1.5,0,0,0-1.45,1.89,14.21,14.21,0,0,0,12.61,9.31c1.25.09,1.72-1.31,1.3-2.25a16.7,16.7,0,0,0-9.32-8.82c-1.14-.47-2.05.85-1.84,1.84a11.57,11.57,0,0,0,12.61,9.11c.86-.1,1.83-.89,1.44-1.9a22,22,0,0,0-9.94-11.6,1.5,1.5,0,0,0-1.52,2.59,18.8,18.8,0,0,1,8.57,9.81l1.45-1.9a8.65,8.65,0,0,1-9.72-6.91l-1.84,1.85a13.85,13.85,0,0,1,7.52,7.44l1.29-2.26a11.09,11.09,0,0,1-9.71-7.1l-1.45,1.9a18.14,18.14,0,0,1,14.55,9.36l1.3-2.26a7.15,7.15,0,0,1-6.63-4.59l-1.45,1.9a8.15,8.15,0,0,1,8,4l1.69-2.2a12.35,12.35,0,0,1-6.23-4.89l-1.69,2.21a9.58,9.58,0,0,1,6.95,5.07l2.05-2.05-18.18-7.8c-1.75-.75-3.28,1.83-1.51,2.59Z" transform="translate(-115.83 -376.1)"/>
    <path d="M329.27,588.66a24.93,24.93,0,0,1,.19-15.26c.6-1.84-2.29-2.62-2.89-.79a27.85,27.85,0,0,0-.2,16.85c.56,1.84,3.45,1.06,2.9-.8Z" transform="translate(-115.83 -376.1)"/>
    <path d="M524,643.09c16,2,30,12.52,46.56,11.52l-.4-3a48.34,48.34,0,0,1-14.73,2.74,1.51,1.51,0,0,0-.4,3,14.94,14.94,0,0,0,13.33-.7,1.53,1.53,0,0,0-.36-2.75,29.5,29.5,0,0,0-10.39-1.35c-1.61.07-2.12,2.57-.4,3a48.27,48.27,0,0,0,20,.13,1.52,1.52,0,0,0,.36-2.75,17.81,17.81,0,0,0-14.34-1.75,1.51,1.51,0,0,0-.89,2.2,8.21,8.21,0,0,0,10.35,3.74c1.07-.4,1.65-2.14.36-2.74a28.19,28.19,0,0,0-14.24-2.66,1.52,1.52,0,0,0-1.29,2.26,12,12,0,0,0,12.8,5.33c1.89-.36,1.09-3.26-.8-2.9a8.94,8.94,0,0,1-9.41-3.94l-1.3,2.25a25.14,25.14,0,0,1,12.73,2.25l.35-2.74a5.61,5.61,0,0,1-7-2.36l-.9,2.2a14.79,14.79,0,0,1,12,1.45l.36-2.74a44.23,44.23,0,0,1-18.4-.13l-.4,2.95a27.53,27.53,0,0,1,9.59,1.25l-.36-2.75a12.25,12.25,0,0,1-11,.41l-.4,2.94A51.16,51.16,0,0,0,571,654.55c1.5-.52,1.38-3-.4-2.94-16.41,1-30.58-9.5-46.56-11.52-1.91-.24-1.89,2.77,0,3Z" transform="translate(-115.83 -376.1)"/>
    <path d="M574.51,654.48v-.21l-1.1,1.45-.64-.1-.68-1.69c-.15.56-2.74,1.09-3.22,1.18a11.11,11.11,0,0,1-3.9.07v2.89l10.22-4.19-1.46-2.51-4.33,3.44a1.51,1.51,0,0,0,.66,2.51A7.12,7.12,0,0,0,577,655a1.56,1.56,0,0,0,0-2.12,6.66,6.66,0,0,0-9.14-1.16,1.53,1.53,0,0,0,0,2.59,6,6,0,0,0,4.15,1.1c1.91-.16,1.92-3.16,0-3a3.73,3.73,0,0,1-2.63-.69v2.59a3.77,3.77,0,0,1,5.49.69V652.9a4.06,4.06,0,0,1-4,1.52l.66,2.51,4.34-3.44c1.14-.91-.1-3.06-1.46-2.51l-10.23,4.2c-1.17.48-1.65,2.63,0,2.89,3,.46,9.82.39,10.81-3.35a1.55,1.55,0,0,0-.69-1.69,1.7,1.7,0,0,0-1.67-.21,1.56,1.56,0,0,0-1.11,1.45v.21c.08,1.93,3.08,1.94,3,0Z" transform="translate(-115.83 -376.1)"/>
    <path d="M329.42,589.85a1.18,1.18,0,0,1,1.43.54l.23-1.81a3,3,0,0,0-.93,3.31l1.85-1.84a2.77,2.77,0,0,0-3.63,2l2.94.4a4.63,4.63,0,0,0-1.26-3.62c-1.09-1.27-3.37.45-2.35,1.82,1.56,2.11,8.34,11,10.47,4.8,1.7-4.95-4.36-9.13-8.45-10l-.4,2.94a11.74,11.74,0,0,1,8.27,4.58l1.69-2.21a22.64,22.64,0,0,1-7.84-4.8c-1.41-1.32-3.54.8-2.12,2.12a26.26,26.26,0,0,0,9.17,5.57c1.16.42,2.48-1.16,1.69-2.2a15.1,15.1,0,0,0-10.86-6.06c-1.68-.15-2,2.59-.4,2.95,2.4.52,5.94,2.29,6.45,5a2,2,0,0,1,.05.69c.05.49-.08.57-.4.23-.44-.08-1.19-1.09-1.48-1.37a33.2,33.2,0,0,1-3.25-3.76l-2.36,1.81a1.57,1.57,0,0,1,.38,1.5c-.14,1.75,2.45,1.94,2.95.4l-.06.14a1.51,1.51,0,0,0,1.85-1.84l.15-.4a1.51,1.51,0,0,0,.24-1.82,4.37,4.37,0,0,0-4.82-1.93c-1.88.42-1.09,3.31.8,2.9Z" transform="translate(-115.83 -376.1)"/>
    <path d="M329,580.5a1.5,1.5,0,0,0,0-3,1.5,1.5,0,0,0,0,3Z" transform="translate(-115.83 -376.1)"/>
    <path d="M694.45,619c-2.15-1.52-4.35-3.62-4.78-6.35-.52-3.25,2.82-7.32,6-4.54,2.17,1.9,2.31,6.88.82,9.2s-1.43-.84-1.64-1.82c-.3-1.41-.58-2.81-.88-4.21-.39-1.89-3.28-1.09-2.89.79.53,2.53.61,6.36,2.44,8.37,1.19,1.3,3.47,1.7,4.76.29,1.67-1.83,2.13-6.07,2.07-8.45a8.91,8.91,0,0,0-2.85-6.54c-3.59-3.15-8.56-1.1-10.26,3-2.16,5.2,1.67,10,5.7,12.84,1.58,1.12,3.08-1.48,1.52-2.59Z" transform="translate(-115.83 -376.1)"/>
    <path d="M691.33,610.8a18.3,18.3,0,0,0,5.08,8.46A1.52,1.52,0,0,0,699,618.2a10.41,10.41,0,0,0-2-7.88c-1.31-1.53-4-1.91-4.71.33-.61,1.84,2.29,2.63,2.89.8-.84.29-1,.53-.52.74a5,5,0,0,1,.52.82,7,7,0,0,1,.62,1.53,8.86,8.86,0,0,1,.19,3.66l2.56-1.06a15.31,15.31,0,0,1-4.31-7.14,1.5,1.5,0,0,0-2.89.8Z" transform="translate(-115.83 -376.1)"/>
    <path d="M693.66,606.09c-3.91.35-6.12,5.78-2.94,8.49,1.46,1.24,3.6-.87,2.12-2.12-1-.86-.71-3.23.82-3.37,1.91-.17,1.93-3.17,0-3Z" transform="translate(-115.83 -376.1)"/>
    <path d="M696.33,606.17h-.66a1.5,1.5,0,0,0,0,3h.66a1.5,1.5,0,0,0,0-3Z" transform="translate(-115.83 -376.1)"/>
    <path d="M689.5,613.67v.66a1.5,1.5,0,0,0,3,0v-.66a1.5,1.5,0,0,0-3,0Z" transform="translate(-115.83 -376.1)"/>
    <path d="M698.74,609.26a8,8,0,0,0-4-2.35c-1.88-.45-2.68,2.44-.8,2.89a5.29,5.29,0,0,1,2.69,1.58c1.31,1.42,3.43-.7,2.12-2.12Z" transform="translate(-115.83 -376.1)"/>
    <path d="M509.5,721.5s10,0,13-3,9,3,9,3h30c1,0,13-8,15-2s16-2,16-2,4,5,7,4,8-8,11-4,4-5,4-5,15,5,14,9,7-4,7-4l13,1s-6,8-7,9-20-4-21-3-75,0-75,0l-8-1s-10-1-10,0-1,3-3,1S509.5,721.5,509.5,721.5Z" transform="translate(-115.83 -376.1)"/>
  </g>
</svg>
