<svg id="pyramid" xmlns="http://www.w3.org/2000/svg" width="398" height="237" viewBox="0 0 398 237">
  <defs>
    <style>
      .cls-1 {
        fill: #754c24;
      }

      .cls-1, .cls-2, .cls-3, .cls-4 {
        stroke: #000;
        stroke-miterlimit: 10;
      }

      .cls-2 {
        fill: #c69c6d;
      }

      .cls-3 {
        fill: #42210b;
      }

      .cls-4 {
        fill: #603813;
      }
    </style>
  </defs>
  <title>pyramid</title>
  <g>
    <rect class="cls-1" x="0.5" y="216.5" width="397" height="20"/>
    <rect class="cls-2" x="0.5" y="198.5" width="397" height="20"/>
    <rect class="cls-2" x="33.5" y="162.5" width="334" height="20"/>
    <rect class="cls-2" x="59.5" y="127.5" width="281" height="20"/>
    <rect class="cls-2" x="94.5" y="90.5" width="211" height="20"/>
    <rect class="cls-2" x="129.5" y="53.5" width="141" height="20"/>
    <rect class="cls-2" x="159.5" y="19.5" width="81" height="20"/>
    <rect class="cls-2" x="159.5" y="7.5" width="81" height="5"/>
    <rect class="cls-1" x="33.5" y="182.09" width="334" height="16.83"/>
    <rect class="cls-1" x="59.5" y="146.42" width="281" height="16.08"/>
    <rect class="cls-1" x="94.5" y="109.42" width="211" height="18.08"/>
    <rect class="cls-1" x="129.5" y="72.42" width="141" height="18.08"/>
    <rect class="cls-1" x="159.5" y="39.5" width="81" height="14"/>
    <rect class="cls-1" x="159.5" y="12.5" width="81" height="7"/>
    <rect class="cls-1" x="159.5" y="0.5" width="81" height="7"/>
    <rect class="cls-3" x="183.5" y="24.5" width="33" height="29"/>
    <polygon class="cls-4" points="158.5 236.5 179.5 53.5 220.5 53.5 242.5 236.5 158.5 236.5"/>
  </g>
</svg>
