<svg xmlns="http://www.w3.org/2000/svg" width="162.19" height="192.08" viewBox="0 0 162.19 192.08">
  <defs>
    <style>
      .cls-1 {
        fill: none;
      }

      .cls-1, .cls-2, .cls-3, .cls-4, .cls-6 {
        stroke: #000;
      }

      .cls-1, .cls-2, .cls-3, .cls-4, .cls-5, .cls-6 {
        stroke-miterlimit: 10;
      }

      .cls-2 {
        fill: #da7d00;
      }

      .cls-3 {
        fill: #19ff05;
      }

      .cls-4 {
        fill: #77f969;
      }

      .cls-5 {
        stroke: #77f969;
      }

      .cls-6 {
        fill: #070707;
      }
    </style>
  </defs>
  <title>shot</title>
  <g id="glass">
    <path class="cls-1" d="M578,649,561,523s-4.5-10.5,9.5-10.5l107,1s3-1,2,8l-17,127s-1,8-13,7c0,0-61,3-65-1C584.5,654.5,579.5,653.5,578,649Z" transform="translate(-559.81 -465)"/>
  </g>
  <g id="liquid">
    <path class="cls-2" d="M641.62,646H600.88a12.37,12.37,0,0,1-12.18-10.22l-10.64-60.26A12.38,12.38,0,0,1,590.25,561h59.17a12.37,12.37,0,0,1,12.27,14l-7.79,60.25A12.39,12.39,0,0,1,641.62,646Z" transform="translate(-559.81 -465)"/>
  </g>
  <g id="lime">
    <path class="cls-3" d="M674,465.5A47.5,47.5,0,0,0,626.5,513v0c.17,0,.33,0,.5,0h41a12,12,0,0,1,12,12l-5.68,35.49a47.5,47.5,0,0,0-.32-95Z" transform="translate(-559.81 -465)"/>
    <path class="cls-4" d="M675,475a38,38,0,0,0-38,38v0l.4,0h32.8a9.63,9.63,0,0,1,9.6,9.6L675.26,551a38,38,0,0,0-.26-76Z" transform="translate(-559.81 -465)"/>
    <path class="cls-5" d="M659.5,509.5l-15-6s1-14,10-12C654.5,491.5,659.5,507.5,659.5,509.5Z" transform="translate(-559.81 -465)"/>
    <path class="cls-5" d="M674.13,505.19l-7.91-14.08s9.56-10.27,15.31-3.07C681.53,488,675.38,503.64,674.13,505.19Z" transform="translate(-559.81 -465)"/>
    <path class="cls-5" d="M686.35,509.37l3.3-15.81s14-1.45,13.55,7.76C703.2,501.32,688.31,509,686.35,509.37Z" transform="translate(-559.81 -465)"/>
    <path class="cls-5" d="M684.75,520.86l15.85-3.14s6.79,12.28-1.84,15.51C698.76,533.23,685.84,522.54,684.75,520.86Z" transform="translate(-559.81 -465)"/>
    <path class="cls-6" d="M681.77,525.94l4.21,15.6s-3.68,9.36-7.48,1C678.5,542.5,680.17,527.14,681.77,525.94Z" transform="translate(-559.81 -465)"/>
  </g>
</svg>
