<svg id="skull" xmlns="http://www.w3.org/2000/svg" xmlns:xlink="http://www.w3.org/1999/xlink" width="631.13" height="837.78" viewBox="0 0 631.13 837.78">
  <defs>
    <style>
      .cls-1 {
        fill: none;
        stroke-width: 5px;
      }

      .cls-1, .cls-2, .cls-3, .cls-4, .cls-5, .cls-6 {
        stroke: #000;
        stroke-miterlimit: 10;
      }

      .cls-2 {
        fill: url(#Sky);
      }

      .cls-3 {
        fill: url(#Sky-2);
      }

      .cls-4 {
        fill: #ff24ff;
      }

      .cls-5 {
        fill: #f8ff67;
      }

      .cls-5, .cls-6 {
        stroke-width: 3px;
      }

      .cls-6 {
        fill: #f9f9f9;
      }
    </style>
    <linearGradient id="Sky" x1="474.13" y1="542.6" x2="596.3" y2="542.6" gradientUnits="userSpaceOnUse">
      <stop offset="0" stop-color="#cce0f4"/>
      <stop offset="0.06" stop-color="#c3dcf2"/>
      <stop offset="0.17" stop-color="#a9d2ee"/>
      <stop offset="0.31" stop-color="#80c2e7"/>
      <stop offset="0.46" stop-color="#47acde"/>
      <stop offset="0.57" stop-color="#1e9cd7"/>
      <stop offset="0.87" stop-color="#0075be"/>
      <stop offset="0.99" stop-color="#005b97"/>
    </linearGradient>
    <linearGradient id="Sky-2" data-name="Sky" x1="670.13" y1="542.6" x2="792.3" y2="542.6" xlink:href="#Sky"/>
  </defs>
  <title>skull</title>
  <g>
    <g>
      <path class="cls-1" d="M465,862s21-111-33-139-54-39-26-123c0,0,22.5-5.5-31.5-86.5s-6-171,20-205,166-113,236-93c0,0,138,1,203,67s98,88,52,228c0,0-50,75-22,90s18,79,5,95-72,31-61,96,6,77-31,94-71,63-71,63-29,20-57,0c0,0-47,22-69,0s-51-62-90-64Z" transform="translate(-301.37 -123)"/>
      <path class="cls-1" d="M487.5,600.5s-48-37,11-109c0,0,108-36,102,30s-58,79-58,79S499.5,615.5,487.5,600.5Z" transform="translate(-301.37 -123)"/>
      <path class="cls-1" d="M775.33,600.5s48.89-37-11.2-109c0,0-110-36-103.88,30s59.07,79,59.07,79S763.11,615.5,775.33,600.5Z" transform="translate(-301.37 -123)"/>
    </g>
    <path d="M475.58,585.29s-34.24-80,54.84-101.39S600,542.6,600,542.6s-25.5,56.27-68.5,61.09S497.66,612.08,475.58,585.29Z" transform="translate(-301.37 -123)"/>
    <path d="M787.46,584.73s34.63-82.06-55.46-104-70.36,60.21-70.36,60.21,25.78,57.72,69.27,62.66S765.13,612.21,787.46,584.73Z" transform="translate(-301.37 -123)"/>
    <path class="cls-2" d="M522.7,533.7s-47.2-22.2-23.2-41.2,35,36,35,36-6-45,16-41,16,26,16,26-12.1,16.88-16,20c-5,4,32-24,43-5,6.56,11.33.31,18.75-5.8,22.9a15.53,15.53,0,0,1-14.7,1.35c-9.81-4.13-26.83-11.14-22.5-8.25,5.06,3.37,28,17,22,34-3.52,10-12.22,10.65-18.79,9.51a12.2,12.2,0,0,1-9.81-9.7c-1-5.34-2.19-12.58-1.9-17.81.5-9-10.5,50-27.5,35s-12-29,4-38-27,21-42-7S522.7,533.7,522.7,533.7Z" transform="translate(-301.37 -123)"/>
    <path class="cls-3" d="M718.7,533.7s-47.2-22.2-23.2-41.2,35,36,35,36-6-45,16-41,16,26,16,26-12.1,16.88-16,20c-5,4,32-24,43-5,6.56,11.33.31,18.75-5.8,22.9a15.53,15.53,0,0,1-14.7,1.35c-9.81-4.13-26.83-11.14-22.5-8.25,5.06,3.37,28,17,22,34-3.52,10-12.22,10.65-18.79,9.51a12.2,12.2,0,0,1-9.81-9.7c-1-5.34-2.19-12.58-1.9-17.81.5-9-10.5,50-27.5,35s-12-29,4-38-27,21-42-7S718.7,533.7,718.7,533.7Z" transform="translate(-301.37 -123)"/>
    <circle class="cls-4" cx="232.13" cy="421.5" r="16"/>
    <circle class="cls-4" cx="434.13" cy="421.5" r="16"/>
    <path d="M490.91,767.22c14.32,12.35,34.21,6.57,51.34,7.41,12.25.6,24.07,5,36.11,7.12a268.36,268.36,0,0,0,34.76,3.48c12.21.49,24.43.36,36.63.11,10.29-.22,21.16.48,30.65-4.14,5.37-2.62,10.14-5.53,16.1-6.72,6.33-1.27,12.91-1.38,19.33-1.79,12.09-.78,24.24-1.27,36.3-2.47,18.6-1.84,39.63-8.3,47.18-27.25.71-1.79-2.19-2.57-2.9-.8-7.51,18.88-29.79,23.9-47.89,25.37-11.21.91-22.45,1.49-33.67,2.21-9.3.6-19,.64-27.66,4.53-4.83,2.18-9.14,5.29-14.36,6.56-5.63,1.36-11.54,1.23-17.3,1.37-11.56.27-23.14.49-34.71.25A297.85,297.85,0,0,1,586.54,780c-11.12-1.52-21.79-4.56-32.76-6.82-10.2-2.09-20.2-1.49-30.53-1.08-10.58.43-21.77.3-30.21-7-1.46-1.25-3.59.86-2.13,2.12Z" transform="translate(-301.37 -123)"/>
    <g>
      <ellipse class="cls-5" cx="96.13" cy="122" rx="28" ry="54.5"/>
      <ellipse class="cls-5" cx="445.5" cy="255" rx="54.5" ry="28" transform="translate(-288.03 408.99) rotate(-62.44)"/>
      <ellipse class="cls-5" cx="451.5" cy="321" rx="28" ry="54.5" transform="translate(-288.63 536.2) rotate(-73.04)"/>
      <ellipse class="cls-5" cx="407.5" cy="354" rx="28" ry="54.5" transform="translate(-332.06 -84.21) rotate(-5.25)"/>
      <ellipse class="cls-5" cx="360.5" cy="342" rx="54.5" ry="28" transform="translate(-434.55 275.55) rotate(-50.03)"/>
      <ellipse class="cls-5" cx="350.5" cy="280" rx="28" ry="54.5" transform="translate(-380.21 287.05) rotate(-55.47)"/>
      <circle class="cls-5" cx="96.63" cy="182" r="24.5"/>
    </g>
    <g>
      <ellipse class="cls-5" cx="205.13" cy="68" rx="28" ry="54.5"/>
      <ellipse class="cls-5" cx="554.5" cy="201" rx="54.5" ry="28" transform="translate(-181.59 476.61) rotate(-62.44)"/>
      <ellipse class="cls-5" cx="560.5" cy="267" rx="28" ry="54.5" transform="translate(-159.78 602.21) rotate(-73.04)"/>
      <ellipse class="cls-5" cx="516.5" cy="300" rx="28" ry="54.5" transform="translate(-326.66 -74.46) rotate(-5.25)"/>
      <ellipse class="cls-5" cx="469.5" cy="288" rx="54.5" ry="28" transform="translate(-354.2 339.77) rotate(-50.03)"/>
      <ellipse class="cls-5" cx="459.5" cy="226" rx="28" ry="54.5" transform="translate(-288.51 353.46) rotate(-55.47)"/>
      <circle class="cls-5" cx="205.63" cy="128" r="24.5"/>
    </g>
    <g>
      <ellipse class="cls-5" cx="310.13" cy="56" rx="28" ry="54.5"/>
      <ellipse class="cls-5" cx="659.5" cy="189" rx="54.5" ry="28" transform="translate(-114.52 563.25) rotate(-62.44)"/>
      <ellipse class="cls-5" cx="665.5" cy="255" rx="28" ry="54.5" transform="translate(-73.94 694.15) rotate(-73.04)"/>
      <ellipse class="cls-5" cx="621.5" cy="288" rx="28" ry="54.5" transform="translate(-325.12 -64.9) rotate(-5.25)"/>
      <ellipse class="cls-5" cx="574.5" cy="276" rx="54.5" ry="28" transform="translate(-307.46 415.95) rotate(-50.03)"/>
      <ellipse class="cls-5" cx="564.5" cy="214" rx="28" ry="54.5" transform="matrix(0.57, -0.82, 0.82, 0.57, -233.14, 434.76)"/>
      <circle class="cls-5" cx="310.63" cy="116" r="24.5"/>
    </g>
    <g>
      <ellipse class="cls-5" cx="741.35" cy="186.7" rx="54.5" ry="28" transform="translate(-11.12 680.91) rotate(-67.97)"/>
      <ellipse class="cls-5" cx="782.1" cy="213.97" rx="54.5" ry="28" transform="translate(-253.44 435.13) rotate(-40.42)"/>
      <ellipse class="cls-5" cx="762.91" cy="277.4" rx="28" ry="54.5" transform="translate(-234.08 572.83) rotate(-51.01)"/>
      <ellipse class="cls-5" cx="709.74" cy="291.49" rx="54.5" ry="28" transform="translate(-75.55 763.9) rotate(-73.23)"/>
      <ellipse class="cls-5" cx="670.67" cy="262.74" rx="54.5" ry="28" transform="translate(-346.21 222.6) rotate(-28)"/>
      <ellipse class="cls-5" cx="684.66" cy="201.51" rx="28" ry="54.5" transform="translate(-299.06 287.7) rotate(-33.44)"/>
      <circle class="cls-5" cx="417.95" cy="119.5" r="24.5"/>
    </g>
    <g>
      <ellipse class="cls-5" cx="790.25" cy="270.22" rx="28" ry="54.5" transform="translate(-215.22 596.38) rotate(-51.41)"/>
      <ellipse class="cls-5" cx="828" cy="238.94" rx="28" ry="54.5" transform="translate(-327.26 232.29) rotate(-23.86)"/>
      <ellipse class="cls-5" cx="883.34" cy="275.41" rx="54.5" ry="28" transform="translate(-302.25 424.97) rotate(-34.45)"/>
      <ellipse class="cls-5" cx="881.69" cy="330.39" rx="28" ry="54.5" transform="translate(-180.23 762.44) rotate(-56.66)"/>
      <ellipse class="cls-5" cx="842.99" cy="359.64" rx="28" ry="54.5" transform="translate(-355.94 51.31) rotate(-11.44)"/>
      <ellipse class="cls-5" cx="788.29" cy="328.79" rx="54.5" ry="28" transform="translate(-362.88 120.11) rotate(-16.88)"/>
      <circle class="cls-5" cx="536.09" cy="184.25" r="24.5"/>
    </g>
    <ellipse cx="621" cy="618.5" rx="58.5" ry="24" transform="translate(-409.27 982.2) rotate(-78.62)"/>
    <ellipse cx="641.61" cy="619.29" rx="25.59" ry="58.5" transform="translate(-425.12 38.69) rotate(-13.11)"/>
    <polygon class="cls-5" points="372.63 260 344.63 260 344.63 236 326.63 236 326.63 260 299.63 260 299.63 280 326.63 280 326.63 324 344.63 324 344.63 280 372.63 280 372.63 260"/>
    <path class="cls-6" d="M490.5,771.5s-2-85,29-67,114,6,114,6,140,11,142-9,28,16,19,66-34,83-47,79-90-31-111,0c0,0-17-39-138-6C498.5,840.5,483.5,804.5,490.5,771.5Z" transform="translate(-301.37 -123)"/>
    <path class="cls-5" d="M621.5,734.5s-20-6-18,24,18,26,18,26,21,2,17-25S630.5,734.5,621.5,734.5Z" transform="translate(-301.37 -123)"/>
    <path class="cls-5" d="M657.5,734.5s-20-6-18,24,18,26,18,26,21,2,17-25S666.5,734.5,657.5,734.5Z" transform="translate(-301.37 -123)"/>
    <path class="cls-5" d="M688.93,736.4s-16.06-4.82-14.46,19.29,14.46,20.89,14.46,20.89,16.88,1.6,13.66-20.09S696.17,736.4,688.93,736.4Z" transform="translate(-301.37 -123)"/>
    <path class="cls-5" d="M715.39,736.38s-13.26-4.5-11.94,18,11.94,19.5,11.94,19.5,13.93,1.5,11.27-18.75S721.36,736.38,715.39,736.38Z" transform="translate(-301.37 -123)"/>
    <path class="cls-5" d="M739.39,734.38s-13.26-4.5-11.94,18,11.94,19.5,11.94,19.5,13.93,1.5,11.27-18.75S745.36,734.38,739.39,734.38Z" transform="translate(-301.37 -123)"/>
    <path class="cls-5" d="M763.39,730.38s-13.26-4.5-11.94,18,11.94,19.5,11.94,19.5,13.93,1.5,11.27-18.75S769.36,730.38,763.39,730.38Z" transform="translate(-301.37 -123)"/>
    <path class="cls-5" d="M602.89,759.69c-1.58,24.1-14.23,20.89-14.23,20.89s-16.59,1.6-13.43-20.09,6.32-20.09,13.43-20.09c0,0,15.81-4.82,14.23,19.29" transform="translate(-301.37 -123)"/>
    <path class="cls-5" d="M562.64,740.38s13.05-4.5,11.74,18-11.74,19.5-11.74,19.5-13.7,1.5-11.09-18.75S556.77,740.38,562.64,740.38Z" transform="translate(-301.37 -123)"/>
    <path class="cls-5" d="M539,738.38s13.05-4.5,11.74,18S539,775.87,539,775.87s-13.7,1.5-11.09-18.75S533.16,738.38,539,738.38Z" transform="translate(-301.37 -123)"/>
    <path class="cls-5" d="M515.42,734.38s13.05-4.5,11.74,18-11.74,19.5-11.74,19.5-13.7,1.5-11.09-18.75S509.55,734.38,515.42,734.38Z" transform="translate(-301.37 -123)"/>
    <path class="cls-5" d="M630.35,786.33s-11-3.91-9.91,15.63,9.91,16.92,9.91,16.92,11.57,1.31,9.37-16.27S635.31,786.33,630.35,786.33Z" transform="translate(-301.37 -123)"/>
    <path class="cls-5" d="M649.35,787.33s-11-3.91-9.91,15.63,9.91,16.92,9.91,16.92,11.57,1.31,9.37-16.27S654.31,787.33,649.35,787.33Z" transform="translate(-301.37 -123)"/>
    <path class="cls-5" d="M668.35,783.33s-11-3.91-9.91,15.63,9.91,16.92,9.91,16.92,11.57,1.31,9.37-16.27S673.31,783.33,668.35,783.33Z" transform="translate(-301.37 -123)"/>
    <path class="cls-5" d="M689.35,779.33s-11-3.91-9.91,15.63,9.91,16.92,9.91,16.92,11.57,1.31,9.37-16.27S694.31,779.33,689.35,779.33Z" transform="translate(-301.37 -123)"/>
    <path class="cls-5" d="M711.88,777.31s-12.7-3.63-11.43,14.48,11.43,15.7,11.43,15.7,13.34,1.21,10.8-15.09S717.6,777.31,711.88,777.31Z" transform="translate(-301.37 -123)"/>
    <path class="cls-5" d="M737.93,771.39s-16.06-4.62-14.46,18.47,14.46,20,14.46,20,16.88,1.54,13.66-19.23S745.17,771.39,737.93,771.39Z" transform="translate(-301.37 -123)"/>
    <path class="cls-5" d="M763.88,769.31s-12.7-3.65-11.43,14.6,11.43,15.81,11.43,15.81,13.34,1.22,10.8-15.2S769.6,769.31,763.88,769.31Z" transform="translate(-301.37 -123)"/>
    <path class="cls-5" d="M610.35,783.33s-11-3.91-9.91,15.63,9.91,16.92,9.91,16.92,11.57,1.31,9.37-16.27S615.31,783.33,610.35,783.33Z" transform="translate(-301.37 -123)"/>
    <path class="cls-5" d="M567,777s13.18-4.54,11.86,18.16S567,814.87,567,814.87s-13.83,1.51-11.19-18.93S561.09,777,567,777Z" transform="translate(-301.37 -123)"/>
    <path class="cls-5" d="M589.31,781.93s10.08-3.48,9.07,13.9-9.07,15.07-9.07,15.07-10.59,1.16-8.57-14.49S584.77,781.93,589.31,781.93Z" transform="translate(-301.37 -123)"/>
    <path class="cls-5" d="M542.94,774.48s13.36-4.61,12,18.42-12,20-12,20-14,1.54-11.36-19.19S536.92,774.48,542.94,774.48Z" transform="translate(-301.37 -123)"/>
    <path class="cls-5" d="M519.52,773.35s12-4.15,10.81,16.57-10.81,18-10.81,18-12.62,1.38-10.22-17.27S514.11,773.35,519.52,773.35Z" transform="translate(-301.37 -123)"/>
  </g>
</svg>
