<svg id="Layer_1" data-name="Layer 1" xmlns="http://www.w3.org/2000/svg" width="447.29" height="311.57" viewBox="0 0 447.29 311.57">
  <defs>
    <style>
      .cls-1 {
        fill: #f3c167;
        stroke-width: 3px;
      }

      .cls-1, .cls-2, .cls-3, .cls-7 {
        stroke: #000;
        stroke-miterlimit: 10;
      }

      .cls-2 {
        fill: #638002;
      }

      .cls-3 {
        fill: #fff;
      }

      .cls-4 {
        fill: #ff1800;
      }

      .cls-5 {
        fill: #1c5103;
      }

      .cls-6 {
        fill: #d2a256;
      }

      .cls-7 {
        fill: none;
      }

      .cls-8 {
        fill: #edff00;
      }
    </style>
  </defs>
  <title>sombrero</title>
  <g id="hat">
    <path class="cls-1" d="M653.17,300.89a119.24,119.24,0,0,0,.75-12.65c0-49.82-32.36-90.31-72.25-90.31-39.43,0-71.49,39.59-72.24,88.81-81.89.3-141.34,16.86-144.5,43.95-4.22,36,91.82,76.61,214.34,91.06s225.47-3,229.69-39C812.42,352.82,746.34,319.55,653.17,300.89Z" transform="translate(-363.3 -196.43)"/>
    <path class="cls-2" d="M507.92,288.24a178,178,0,0,1,10.54-45.45l130.95,10.53s6,28.9,4.51,48.47C653.92,301.79,595.22,273.19,507.92,288.24Z" transform="translate(-363.3 -196.43)"/>
    <polygon class="cls-3" points="188.28 49.67 174.73 48.16 146.13 75.25 144.63 91.81 188.28 49.67"/>
    <path class="cls-3" d="M539.53,244.59,557.59,246l9,38.08-13.54-.3S550.07,249.11,539.53,244.59Z" transform="translate(-363.3 -196.43)"/>
    <polygon class="cls-3" points="204.53 87.6 217.78 51.32 234.78 52.68 216.87 88.2 204.53 87.6"/>
    <polygon class="cls-3" points="234.94 52.68 242.91 91.51 260.67 95.27 251.34 54.03 234.94 52.68"/>
    <path class="cls-3" d="M623.82,291.25l12.79-39,11.44.9-9.78,42.6S627,292.46,624,291.86" transform="translate(-363.3 -196.43)"/>
    <path class="cls-4" d="M588.6,315C693.06,325,778,354.47,792.85,384.27a17.49,17.49,0,0,0,2.26-7.22c3.16-33.11-89.41-69.09-206.51-80.23s-214.79,6.78-218,40a20.16,20.16,0,0,0,2.26,10.84C388.41,319.4,480.08,304.8,588.6,315Z" transform="translate(-363.3 -196.43)"/>
    <path class="cls-5" d="M778.85,380.81c-21.37,14.9-101.75,19.42-196.27,9.79-91.82-9.49-167.83-29.35-188.45-47.87-3.31,2.26-5.27,5-5.57,7.68-2.11,20.92,84.74,47,194,58.25s199.58,3.46,201.69-17.46C784.72,387.74,782.77,384.27,778.85,380.81Z" transform="translate(-363.3 -196.43)"/>
    <ellipse class="cls-6" cx="578.39" cy="352.26" rx="24.38" ry="165.27" transform="translate(-194.81 694.9) rotate(-84.09)"/>
  </g>
  <g id="leftStream">
    <g id="leftstreamers">
      <path class="cls-7" d="M382.24,347.7c0,46.66,14.15,84.29,31.61,84.29" transform="translate(-363.3 -196.43)"/>
      <path class="cls-7" d="M418.36,364.26c0,37.47,14.15,67.73,31.61,67.73" transform="translate(-363.3 -196.43)"/>
      <circle class="cls-8" cx="46.79" cy="251.36" r="21.07"/>
      <circle class="cls-8" cx="97.96" cy="246.84" r="21.07"/>
    </g>
  </g>
  <g id="rightStream">
    <g id="rightStreamers">
      <path class="cls-7" d="M794.66,389.84c0,47.42-16.86,85.8-37.63,85.8" transform="translate(-363.3 -196.43)"/>
      <path class="cls-7" d="M766.06,398.87c0,38.24-18.82,69.24-42.15,69.24" transform="translate(-363.3 -196.43)"/>
      <circle class="cls-8" cx="344.06" cy="268.67" r="21.07"/>
      <circle class="cls-8" cx="388.46" cy="290.49" r="21.07"/>
    </g>
  </g>
</svg>
