<svg xmlns="http://www.w3.org/2000/svg" width="215.31" height="121.59" viewBox="0 0 215.31 121.59">
  <defs>
    <style>
      .cls-1 {
        fill: #fff652;
        stroke: #000;
        stroke-miterlimit: 10;
      }

      .cls-2 {
        fill: #fc0b0b;
      }

      .cls-3 {
        fill: #ff0b0b;
      }

      .cls-4 {
        fill: #ff0;
      }

      .cls-5 {
        fill: #ea9c00;
      }

      .cls-6 {
        fill: #00e805;
      }

      .cls-7 {
        fill: #f9ff00;
      }
    </style>
  </defs>
  <title>taco</title>
  <g id="toppings">
    <g>
      <path class="cls-1" d="M783,659.59s17.51-73.48-57.52-84.14-74,18.49-74,18.49l95.87,65.54S772.36,664.69,783,659.59Z" transform="translate(-574.5 -540.91)"/>
      <path class="cls-2" d="M672.94,586.11l30.85-4.76c3.68,0,39.18,5.93,39.18,7.94v11.56c0,2-3,0-6.67,0H679.61c-3.68,0-6.67-1.62-6.67-3.63v-7.93C672.94,587.28,669.26,586.11,672.94,586.11Z" transform="translate(-574.5 -540.91)"/>
      <line class="cls-3" x1="143.25" y1="42.71" x2="138.67" y2="42.71"/>
      <line class="cls-3" x1="41.99" x2="45.15"/>
      <path class="cls-4" d="M677.11,597.68,705,592.24c14.75-.7,42.74-2.32,46.68,5.44l22.09,27.44H677.53Z" transform="translate(-574.5 -540.91)"/>
      <path class="cls-5" d="M753.93,660.49l-46.39-11.11c-2.75,0,9.17-11.88,9.17-13.38l10.42-1.81c0-1.5-.67-8.39,2.08-8.39l40.85-2.72c7.68,0,10,11,10,15.19l-2.92,13.15c0,.9-5.28,9.55-10.11,10A41.12,41.12,0,0,1,753.93,660.49Z" transform="translate(-574.5 -540.91)"/>
      <path class="cls-6" d="M725.46,616.73s17.09,20.41,7.51,11.11c0,0,8.75,10.43,9.58-1.13,0,0,10.22,10.09,8.55,2.38,0,0,14.17,18.37,14.59,8.16s2.08-12.93,5.42-14.74,5.41,6.58,7.5,3.4,18.76-7,7.08-9.3-16.67,0-16.67,0-7.08-8.39-8.34-3.85,0,.91,0,.91-2.5,6.35-13.33,4.3A97.15,97.15,0,0,0,725.46,616.73Z" transform="translate(-574.5 -540.91)"/>
    </g>
  </g>
  <g id="cheese">
    <path class="cls-7" d="M718.38,592.69S738,599,741.3,604.48c0,0,11.47,5.33,12.3,6.92s4.17-1.82,4.17-1.82-14.59-12.92-14.17-9.29S724.42,589,722.75,589.63A22.64,22.64,0,0,0,718.38,592.69Z" transform="translate(-574.5 -540.91)"/>
    <path class="cls-7" d="M743.2,592s-2.77,12.31-10.58,16.17c0,0-4.33,7.86-6.67,8.91s4.74,1.35,4.74,1.35,15.85-12.48,9.91-10.81,11.33-14.12,9.51-14.68A51.74,51.74,0,0,0,743.2,592Z" transform="translate(-574.5 -540.91)"/>
    <path class="cls-7" d="M738,595s19.59,6.35,22.92,11.79c0,0,11.47,5.33,12.3,6.92s4.17-1.82,4.17-1.82-14.59-12.92-14.17-9.3S744,591.21,742.34,591.9A22.64,22.64,0,0,0,738,595Z" transform="translate(-574.5 -540.91)"/>
    <path class="cls-7" d="M642.51,561.17s19.6,6.35,22.93,11.79c0,0,11.46,5.33,12.3,6.92s4.16-1.82,4.16-1.82-14.58-12.92-14.17-9.3-19.17-11.33-20.84-10.65A22.48,22.48,0,0,0,642.51,561.17Z" transform="translate(-574.5 -540.91)"/>
    <path class="cls-7" d="M764.46,593.52s-4,12.21-12.13,15.84c0,0-5.08,7.73-7.51,8.71s4.59,1.48,4.59,1.48,17-12,11-10.51,12.67-13.78,10.91-14.38A49.12,49.12,0,0,0,764.46,593.52Z" transform="translate(-574.5 -540.91)"/>
    <path class="cls-7" d="M745.7,576.51s-4,12.22-12.12,15.84c0,0-5.09,7.73-7.52,8.71s4.6,1.48,4.6,1.48,17-12,10.94-10.51,12.67-13.78,10.91-14.38A49.12,49.12,0,0,0,745.7,576.51Z" transform="translate(-574.5 -540.91)"/>
    <path class="cls-7" d="M724.86,589.21s-4,12.22-12.12,15.84c0,0-5.09,7.73-7.52,8.71s4.59,1.48,4.59,1.48,17-12,11-10.51,12.67-13.78,10.91-14.38A49.12,49.12,0,0,0,724.86,589.21Z" transform="translate(-574.5 -540.91)"/>
    <path class="cls-7" d="M737.87,605.46s-21.57-4-26.89-9c0,0-13.23-3.94-14.64-5.4s-3.4,2.24-3.4,2.24,19.16,11,17.38,7.52,23,9,24.42,8.1A15.32,15.32,0,0,0,737.87,605.46Z" transform="translate(-574.5 -540.91)"/>
    <path class="cls-7" d="M727,587.32s-21.57-4-26.89-9c0,0-13.23-3.94-14.64-5.4s-3.4,2.24-3.4,2.24,19.16,11,17.38,7.52,23,8.95,24.42,8.1A15.06,15.06,0,0,0,727,587.32Z" transform="translate(-574.5 -540.91)"/>
    <path class="cls-7" d="M740.78,586s-21.57-4-26.88-9c0,0-13.23-3.93-14.65-5.39s-3.39,2.24-3.39,2.24,19.15,11,17.38,7.52,23,8.95,24.42,8.1A15.19,15.19,0,0,0,740.78,586Z" transform="translate(-574.5 -540.91)"/>
    <path class="cls-7" d="M752,586.86s-21.57-4-26.89-9c0,0-13.23-3.93-14.64-5.39s-3.4,2.24-3.4,2.24,19.16,11,17.38,7.51,23,9,24.42,8.11A15.3,15.3,0,0,0,752,586.86Z" transform="translate(-574.5 -540.91)"/>
    <path class="cls-7" d="M678.87,579.84S666,569.6,667.2,563.9c0,0-6.28-7.46-5.81-9.09s-5.19.69-5.19.69,3.24,15.07,5.67,11.68,8.63,14.67,10.67,14.44A42.54,42.54,0,0,0,678.87,579.84Z" transform="translate(-574.5 -540.91)"/>
    <path class="cls-7" d="M744.76,578.34s14.29,9.67,13.93,15.41c0,0,7.33,7.17,7.09,8.81s5.07-.91,5.07-.91-5.39-14.88-7.32-11.4-10.7-14.27-12.7-13.94A39.08,39.08,0,0,0,744.76,578.34Z" transform="translate(-574.5 -540.91)"/>
    <path class="cls-7" d="M726,584.24s14.29,9.67,13.92,15.4c0,0,7.33,7.17,7.1,8.82s5.07-.91,5.07-.91-5.39-14.88-7.33-11.41-10.7-14.26-12.7-13.94A38.54,38.54,0,0,0,726,584.24Z" transform="translate(-574.5 -540.91)"/>
    <path class="cls-7" d="M673.49,567.23s14.29,9.67,13.92,15.4c0,0,7.33,7.17,7.1,8.82s5.07-.91,5.07-.91-5.39-14.88-7.33-11.4-10.7-14.27-12.7-13.95A38.54,38.54,0,0,0,673.49,567.23Z" transform="translate(-574.5 -540.91)"/>
    <path class="cls-7" d="M620.13,559.75s14.29,9.67,13.93,15.4c0,0,7.33,7.17,7.09,8.82s5.07-.91,5.07-.91-5.39-14.89-7.32-11.41-10.7-14.26-12.7-13.94A38.78,38.78,0,0,0,620.13,559.75Z" transform="translate(-574.5 -540.91)"/>
    <path class="cls-7" d="M629.46,585.51s-14.11-9.75-13.63-15.48c0,0-7.19-7.21-6.92-8.85s-5.09.88-5.09.88,5.1,14.91,7.1,11.44,10.43,14.33,12.43,14A39.14,39.14,0,0,0,629.46,585.51Z" transform="translate(-574.5 -540.91)"/>
  </g>
  <g id="shell">
    <path class="cls-1" d="M583.12,630s-15.43-22-3.75-41.27,37.09-27,55-24.72,49.18,6.58,75.44,32.88,40.43,61.46,40.43,61.46,7.51.45,11.68,3.4S682.32,641.56,583.12,630Z" transform="translate(-574.5 -540.91)"/>
  </g>
</svg>
