<svg id="hotsauce" xmlns="http://www.w3.org/2000/svg" width="47.5" height="196.23" viewBox="0 0 47.5 196.23">
  <defs>
    <style>
      .cls-1 {
        fill: #f12d00;
        stroke: #000;
        stroke-miterlimit: 10;
        stroke-width: 3px;
      }

      .cls-2 {
        fill: #f4f2f2;
      }

      .cls-3 {
        fill: red;
      }

      .cls-4 {
        fill: #ff0;
      }

      .cls-5 {
        fill: #cc7809;
      }

      .cls-6 {
        fill: #020202;
      }

      .cls-7 {
        fill: #f9aa38;
      }
    </style>
  </defs>
  <title>Tapatio</title>
  <g id="cap">
    <rect x="12.5" width="24" height="24" rx="12" ry="12"/>
  </g>
  <g id="bottle">
    <path class="cls-1" d="M614.5,640.43v-93a138.43,138.43,0,0,1,8.84-14.31c5.47-7.78,3.89-70,5.57-63.64,0,0,6.52-5.68,17.89-.42,0,0,.63,52,3.78,63.12,0,0,7.37,11.57,8.42,16.83v91.52S641.75,655.68,614.5,640.43Z" transform="translate(-613 -452.5)"/>
    <rect class="cls-2" x="1.71" y="94.93" width="43.97" height="95.94" rx="21.99" ry="21.99"/>
    <path class="cls-3" d="M620.81,618.34s-2.73-2.11.84-6.32a5.74,5.74,0,0,0,1.79-.1c.63-.21-2.1-2.11,4-1.69,0,0,8,3.79,8.84,3.16h4l7.16-3.16s2.94-1.89,6.52,5.26c0,0,1.47,4-1.47,2.74,0,0-.21-3.37-2.11.21s-1.68-3.79-1.68-3.79-7.57,3.16-11.15,3.79-11.78-3.79-11.78-3.79-.21,5.26-1.48,4.42a4.72,4.72,0,0,1-1.68-2.1S621.55,619.07,620.81,618.34Z" transform="translate(-613 -452.5)"/>
  </g>
  <g id="person">
    <g>
      <ellipse class="cls-4" cx="23.91" cy="153.53" rx="7.68" ry="2.21"/>
      <rect class="cls-4" x="16.44" y="153.21" width="15.57" height="5.68"/>
      <path class="cls-4" d="M650.06,610.13" transform="translate(-613 -452.5)"/>
      <path class="cls-4" d="M650.06,610.13a4.51,4.51,0,0,0-1.26-4.21c-1.06-.94-3.79.11-3.79.11v5.08A23.59,23.59,0,0,1,650.06,610.13Z" transform="translate(-613 -452.5)"/>
      <path class="cls-4" d="M623.76,610.13s.42-5.89,5.68-4.42v5.68Z" transform="translate(-613 -452.5)"/>
      <path class="cls-4" d="M630.28,611.39l.26.12a34.5,34.5,0,0,0,4.3,1.74,38.27,38.27,0,0,0,5.33,0l4.84-1.9" transform="translate(-613 -452.5)"/>
      <circle class="cls-5" cx="23.91" cy="143.22" r="9.99"/>
      <path d="M628.81,593.72s1.26,2.1,0,3.79,3.15-4,4-1.9,2.74.63,2.74.63l.7-1.89s-6.59-.42-7.43-.63" transform="translate(-613 -452.5)"/>
      <path class="cls-6" d="M640.17,595.82l.84-1.59,5.65-.69a13,13,0,0,1,.24,2.84c-.1,1-3.89-2.14-3.89-.66S640.17,595.82,640.17,595.82Z" transform="translate(-613 -452.5)"/>
      <path class="cls-6" d="M640.17,595.82s-4.64.63-4.32-.42l.32-1,4.84-.12" transform="translate(-613 -452.5)"/>
      <path class="cls-6" d="M629.35,595.4s-2.35-.83-2.39-.62.16-1.69.37-1.69,1.48,0,1.48.21A13.51,13.51,0,0,1,629.35,595.4Z" transform="translate(-613 -452.5)"/>
      <circle class="cls-6" cx="20.54" cy="145.53" r="0.95"/>
      <circle class="cls-6" cx="27.7" cy="145.53" r="0.95"/>
      <path class="cls-6" d="M641.22,602.28v.06h-8v-.06a1.33,1.33,0,0,0-.64,1c0,1.11,2.08,2,4.63,2s4.63-.89,4.63-2A1.32,1.32,0,0,0,641.22,602.28Z" transform="translate(-613 -452.5)"/>
      <path class="cls-6" d="M631.33,601.92s1.26-2.52,3.16-1.89,5.57.32,6.21-.1,2.52,1.47,2.94,1.89.42,2.1.42,2.1l-2.94-2.1h-8a15.7,15.7,0,0,1-1.79,2.42C631,604.34,630.81,602.66,631.33,601.92Z" transform="translate(-613 -452.5)"/>
      <circle class="cls-7" cx="23.91" cy="133.12" r="8.1"/>
      <ellipse class="cls-7" cx="24.22" cy="137.12" rx="16.83" ry="4.73"/>
    </g>
  </g>
</svg>
