<svg xmlns="http://www.w3.org/2000/svg" width="333" height="337" viewBox="0 0 333 337">
  <defs>
    <style>
      .cls-1 {
        fill: #1743ce;
      }

      .cls-2 {
        fill: #fff;
      }

      .cls-2, .cls-4, .cls-5, .cls-6 {
        stroke: #000;
        stroke-miterlimit: 10;
      }

      .cls-2, .cls-4, .cls-5 {
        stroke-width: 3px;
      }

      .cls-3 {
        fill: #15d17c;
      }

      .cls-4, .cls-6 {
        fill: red;
      }

      .cls-5 {
        fill: #06bc65;
      }
    </style>
  </defs>
  <title>vicks</title>
  <g id="vaporub">
    <g>
      <rect class="cls-1" x="23.5" y="51.5" width="284" height="284" rx="10.5" ry="10.5"/>
      <path d="M757,502a9,9,0,0,1,9,9V774a9,9,0,0,1-9,9H494a9,9,0,0,1-9-9V511a9,9,0,0,1,9-9H757m0-3H494a12,12,0,0,0-12,12V774a12,12,0,0,0,12,12H757a12,12,0,0,0,12-12V511a12,12,0,0,0-12-12Z" transform="translate(-460 -449)"/>
    </g>
    <rect class="cls-2" x="40" y="91.15" width="249" height="206.7"/>
    <g>
      <rect class="cls-3" x="1.5" y="1.5" width="330" height="54" rx="10.5" ry="10.5"/>
      <path d="M781,452a9,9,0,0,1,9,9v33a9,9,0,0,1-9,9H472a9,9,0,0,1-9-9V461a9,9,0,0,1,9-9H781m0-3H472a12,12,0,0,0-12,12v33a12,12,0,0,0,12,12H781a12,12,0,0,0,12-12V461a12,12,0,0,0-12-12Z" transform="translate(-460 -449)"/>
    </g>
    <path class="cls-4" d="M576,701v.07c-10.41.72-21.08,7-21,16.93.08,9.72,11.13,15.42,21,16v0H739V701Z" transform="translate(-460 -449)"/>
    <path class="cls-5" d="M712.22,589.14C699.5,612,701.77,644.25,680,644.25s-19.5-38.15-31.38-55.11c-12.48-17.84,9.18-42.39,31-42.39S722.79,570.11,712.22,589.14Z" transform="translate(-460 -449)"/>
  </g>
  <g id="Layer_2" data-name="Layer 2">
    <polygon class="cls-6" points="65.08 234.04 77.91 207.84 70.72 204.32 60.9 224.39 53 206.19 45.66 209.37 58 237.81 63.64 235.37 64.28 235.68 64.65 234.93 65.34 234.63 65.08 234.04"/>
    <path class="cls-6" d="M556.37,685.91l7.42-3-11.16-27.84-3.12,1.25L544.88,655l-8.44,28.79,7.68,2.25,2.39-8.18,6.51-.27ZM547.65,674l1.66-5.65,2.2,5.49Z" transform="translate(-460 -449)"/>
    <path class="cls-6" d="M587.28,657.72a11,11,0,0,0-11.78-2.46v-.76h-8v32h8V675.74a11,11,0,0,0,11.78-18ZM579.5,670.5a6,6,0,1,1,6-6A6,6,0,0,1,579.5,670.5Z" transform="translate(-460 -449)"/>
    <path class="cls-6" d="M609.5,654.5a16,16,0,1,0,16,16A16,16,0,0,0,609.5,654.5Zm0,24a8,8,0,1,1,8-8A8,8,0,0,1,609.5,678.5Z" transform="translate(-460 -449)"/>
    <path class="cls-6" d="M654,683.15l-5.88-8.91a11.26,11.26,0,0,0,1.13-1,11,11,0,0,0-11.78-18v-.76h-8v32h8V675.74a11.18,11.18,0,0,0,2.47.62l7.38,11.2ZM635.5,664.5a6,6,0,1,1,6,6A6,6,0,0,1,635.5,664.5Z" transform="translate(-460 -449)"/>
    <path class="cls-6" d="M658,655s-1.5,26.5,13,32c10.33,3.92,9-32,9-32h-6v14s-3.5,9.5-9,0l-1-14Z" transform="translate(-460 -449)"/>
    <path class="cls-6" d="M699.61,670.5a9,9,0,0,0-4.11-17,8.88,8.88,0,0,0-4.11,1H683.5v33h10v-.23a8.76,8.76,0,0,0,2,.23,9,9,0,0,0,4.11-17Zm-3.11-12a4,4,0,1,1-4,4A4,4,0,0,1,696.5,658.5Zm0,24a4,4,0,1,1,4-4A4,4,0,0,1,696.5,682.5Z" transform="translate(-460 -449)"/>
  </g>
</svg>
